<?xml version="1.0" encoding="UTF-8" standalone="no"?>
<!DOCTYPE svg PUBLIC "-//W3C//DTD SVG 1.1//EN"
 "http://www.w3.org/Graphics/SVG/1.1/DTD/svg11.dtd">
<!-- Generated by graphviz version 2.44.0 (20200408.0750)
 -->
<!-- Title: main Pages: 1 -->
<svg width="336pt" height="256pt"
 viewBox="0.00 0.00 336.00 256.00" xmlns="http://www.w3.org/2000/svg" xmlns:xlink="http://www.w3.org/1999/xlink">
<g id="graph0" class="graph" transform="scale(1 1) rotate(0) translate(4 252)">
<title>main</title>
<polygon fill="white" stroke="transparent" points="-4,4 -4,-252 332,-252 332,4 -4,4"/>
<!-- Node1 -->
<g id="node1" class="node">
<title>Node1</title>
<g id="a_node1"><a xlink:title=" ">
<polygon fill="#bfbfbf" stroke="black" points="0,-133.5 0,-152.5 38,-152.5 38,-133.5 0,-133.5"/>
<text text-anchor="middle" x="19" y="-140.5" font-family="Helvetica,sans-Serif" font-size="10.00">main</text>
</a>
</g>
</g>
<!-- Node2 -->
<g id="node2" class="node">
<title>Node2</title>
<g id="a_node2"><a xlink:href="../../df/d82/breadth__first__search_8cpp.html#a992cd12af305656802c57c2744deee5d" target="_top" xlink:title="Adds and edge between two vertices of graph say u and v in this case.">
<polygon fill="white" stroke="black" points="97.5,-190.5 97.5,-209.5 152.5,-209.5 152.5,-190.5 97.5,-190.5"/>
<text text-anchor="middle" x="125" y="-197.5" font-family="Helvetica,sans-Serif" font-size="10.00">addEdge</text>
</a>
</g>
</g>
<!-- Node1&#45;&gt;Node2 -->
<g id="edge1" class="edge">
<title>Node1&#45;&gt;Node2</title>
<path fill="none" stroke="midnightblue" d="M37.64,-152.67C54.1,-161.69 78.87,-175.27 97.67,-185.57"/>
<polygon fill="midnightblue" stroke="midnightblue" points="96.17,-188.74 106.62,-190.47 99.53,-182.6 96.17,-188.74"/>
</g>
<!-- Node4 -->
<g id="node4" class="node">
<title>Node4</title>
<g id="a_node4"><a xlink:href="../../df/d82/breadth__first__search_8cpp.html#a9c29a1c53b44dc3990ffa291c0804f2d" target="_top" xlink:title="Function performs the breadth first search algorithm over the graph.">
<polygon fill="white" stroke="black" points="74,-114.5 74,-133.5 176,-133.5 176,-114.5 74,-114.5"/>
<text text-anchor="middle" x="125" y="-121.5" font-family="Helvetica,sans-Serif" font-size="10.00">beadth_first_search</text>
</a>
</g>
</g>
<!-- Node1&#45;&gt;Node4 -->
<g id="edge3" class="edge">
<title>Node1&#45;&gt;Node4</title>
<path fill="none" stroke="midnightblue" d="M38.12,-139.69C45.54,-138.33 54.61,-136.68 64.03,-134.96"/>
<polygon fill="midnightblue" stroke="midnightblue" points="64.71,-138.39 73.92,-133.15 63.46,-131.5 64.71,-138.39"/>
</g>
<!-- Node3 -->
<g id="node3" class="node">
<title>Node3</title>
<g id="a_node3"><a target="_blank" xlink:href="http://en.cppreference.com/w/cpp/container/vector/push_back.html#" xlink:title=" ">
<polygon fill="white" stroke="black" points="212,-228.5 212,-247.5 328,-247.5 328,-228.5 212,-228.5"/>
<text text-anchor="middle" x="270" y="-235.5" font-family="Helvetica,sans-Serif" font-size="10.00">std::vector::push_back</text>
</a>
</g>
</g>
<!-- Node2&#45;&gt;Node3 -->
<g id="edge2" class="edge">
<title>Node2&#45;&gt;Node3</title>
<path fill="none" stroke="midnightblue" d="M152.56,-207.06C172.42,-212.34 200.06,-219.68 223.43,-225.89"/>
<polygon fill="midnightblue" stroke="midnightblue" points="222.58,-229.29 233.14,-228.47 224.38,-222.52 222.58,-229.29"/>
</g>
<!-- Node5 -->
<g id="node5" class="node">
<title>Node5</title>
<g id="a_node5"><a target="_blank" xlink:href="http://en.cppreference.com/w/cpp/container/queue/empty.html#" xlink:title=" ">
<polygon fill="white" stroke="black" points="222.5,-190.5 222.5,-209.5 317.5,-209.5 317.5,-190.5 222.5,-190.5"/>
<text text-anchor="middle" x="270" y="-197.5" font-family="Helvetica,sans-Serif" font-size="10.00">std::queue::empty</text>
</a>
</g>
</g>
<!-- Node4&#45;&gt;Node5 -->
<g id="edge4" class="edge">
<title>Node4&#45;&gt;Node5</title>
<path fill="none" stroke="midnightblue" d="M138.19,-133.59C154.32,-145.92 183.98,-167.34 212,-181 216.4,-183.14 221.1,-185.14 225.84,-186.97"/>
<polygon fill="midnightblue" stroke="midnightblue" points="224.96,-190.37 235.56,-190.49 227.35,-183.79 224.96,-190.37"/>
</g>
<!-- Node6 -->
<g id="node6" class="node">
<title>Node6</title>
<g id="a_node6"><a target="_blank" xlink:href="http://en.cppreference.com/w/cpp/io/manip/endl.html#" xlink:title=" ">
<polygon fill="white" stroke="black" points="243,-152.5 243,-171.5 297,-171.5 297,-152.5 243,-152.5"/>
<text text-anchor="middle" x="270" y="-159.5" font-family="Helvetica,sans-Serif" font-size="10.00">std::endl</text>
</a>
</g>
</g>
<!-- Node4&#45;&gt;Node6 -->
<g id="edge5" class="edge">
<title>Node4&#45;&gt;Node6</title>
<path fill="none" stroke="midnightblue" d="M162.08,-133.59C183.8,-139.36 211.34,-146.68 233.04,-152.44"/>
<polygon fill="midnightblue" stroke="midnightblue" points="232.29,-155.87 242.85,-155.05 234.09,-149.1 232.29,-155.87"/>
</g>
<!-- Node7 -->
<g id="node7" class="node">
<title>Node7</title>
<g id="a_node7"><a target="_blank" xlink:href="http://en.cppreference.com/w/cpp/container/queue/front.html#" xlink:title=" ">
<polygon fill="white" stroke="black" points="226,-114.5 226,-133.5 314,-133.5 314,-114.5 226,-114.5"/>
<text text-anchor="middle" x="270" y="-121.5" font-family="Helvetica,sans-Serif" font-size="10.00">std::queue::front</text>
</a>
</g>
</g>
<!-- Node4&#45;&gt;Node7 -->
<g id="edge6" class="edge">
<title>Node4&#45;&gt;Node7</title>
<path fill="none" stroke="midnightblue" d="M176.01,-124C188.85,-124 202.71,-124 215.7,-124"/>
<polygon fill="midnightblue" stroke="midnightblue" points="215.91,-127.5 225.91,-124 215.91,-120.5 215.91,-127.5"/>
</g>
<!-- Node8 -->
<g id="node8" class="node">
<title>Node8</title>
<g id="a_node8"><a target="_blank" xlink:href="http://en.cppreference.com/w/cpp/container/queue/pop.html#" xlink:title=" ">
<polygon fill="white" stroke="black" points="228,-76.5 228,-95.5 312,-95.5 312,-76.5 228,-76.5"/>
<text text-anchor="middle" x="270" y="-83.5" font-family="Helvetica,sans-Serif" font-size="10.00">std::queue::pop</text>
</a>
</g>
</g>
<!-- Node4&#45;&gt;Node8 -->
<g id="edge7" class="edge">
<title>Node4&#45;&gt;Node8</title>
<path fill="none" stroke="midnightblue" d="M162.08,-114.41C180.63,-109.48 203.43,-103.43 223.2,-98.17"/>
<polygon fill="midnightblue" stroke="midnightblue" points="224.16,-101.54 232.93,-95.59 222.36,-94.77 224.16,-101.54"/>
</g>
<!-- Node9 -->
<g id="node9" class="node">
<title>Node9</title>
<g id="a_node9"><a target="_blank" xlink:href="http://en.cppreference.com/w/cpp/container/queue/push.html#" xlink:title=" ">
<polygon fill="white" stroke="black" points="225.5,-38.5 225.5,-57.5 314.5,-57.5 314.5,-38.5 225.5,-38.5"/>
<text text-anchor="middle" x="270" y="-45.5" font-family="Helvetica,sans-Serif" font-size="10.00">std::queue::push</text>
</a>
</g>
</g>
<!-- Node4&#45;&gt;Node9 -->
<g id="edge8" class="edge">
<title>Node4&#45;&gt;Node9</title>
<path fill="none" stroke="midnightblue" d="M138.19,-114.41C154.32,-102.08 183.98,-80.66 212,-67 216.4,-64.86 221.1,-62.86 225.84,-61.03"/>
<polygon fill="midnightblue" stroke="midnightblue" points="227.35,-64.21 235.56,-57.51 224.96,-57.63 227.35,-64.21"/>
</g>
<!-- Node10 -->
<g id="node10" class="node">
<title>Node10</title>
<g id="a_node10"><a target="_blank" xlink:href="http://en.cppreference.com/w/cpp/container/vector/size.html#" xlink:title=" ">
<polygon fill="white" stroke="black" points="226.5,-0.5 226.5,-19.5 313.5,-19.5 313.5,-0.5 226.5,-0.5"/>
<text text-anchor="middle" x="270" y="-7.5" font-family="Helvetica,sans-Serif" font-size="10.00">std::vector::size</text>
</a>
</g>
</g>
<!-- Node4&#45;&gt;Node10 -->
<g id="edge9" class="edge">
<title>Node4&#45;&gt;Node10</title>
<path fill="none" stroke="midnightblue" d="M132.13,-114.43C144.79,-95.42 175.67,-52.72 212,-29 215.11,-26.97 218.46,-25.14 221.91,-23.49"/>
<polygon fill="midnightblue" stroke="midnightblue" points="223.4,-26.66 231.24,-19.53 220.67,-20.21 223.4,-26.66"/>
</g>
</g>
</svg>
