<?xml version="1.0" encoding="UTF-8" standalone="no"?>
<!DOCTYPE svg PUBLIC "-//W3C//DTD SVG 1.1//EN"
 "http://www.w3.org/Graphics/SVG/1.1/DTD/svg11.dtd">
<!-- Generated by graphviz version 2.44.0 (20200408.0750)
 -->
<!-- Title: main Pages: 1 -->
<svg width="315pt" height="208pt"
 viewBox="0.00 0.00 315.00 208.00" xmlns="http://www.w3.org/2000/svg" xmlns:xlink="http://www.w3.org/1999/xlink">
<g id="graph0" class="graph" transform="scale(1 1) rotate(0) translate(4 204)">
<title>main</title>
<polygon fill="white" stroke="transparent" points="-4,4 -4,-204 311,-204 311,4 -4,4"/>
<!-- Node1 -->
<g id="node1" class="node">
<title>Node1</title>
<g id="a_node1"><a xlink:title=" ">
<polygon fill="#bfbfbf" stroke="black" points="0,-142.5 0,-161.5 38,-161.5 38,-142.5 0,-142.5"/>
<text text-anchor="middle" x="19" y="-149.5" font-family="Helvetica,sans-Serif" font-size="10.00">main</text>
</a>
</g>
</g>
<!-- Node2 -->
<g id="node2" class="node">
<title>Node2</title>
<g id="a_node2"><a xlink:href="../../df/d82/breadth__first__search_8cpp.html#ad033d577caee5360f34a685e196fe3d9" target="_top" xlink:title="Adds and edge between two vertices of graph say u and v in this case.">
<polygon fill="white" stroke="black" points="97.5,-180.5 97.5,-199.5 152.5,-199.5 152.5,-180.5 97.5,-180.5"/>
<text text-anchor="middle" x="125" y="-187.5" font-family="Helvetica,sans-Serif" font-size="10.00">addEdge</text>
</a>
</g>
</g>
<!-- Node1&#45;&gt;Node2 -->
<g id="edge1" class="edge">
<title>Node1&#45;&gt;Node2</title>
<path fill="none" stroke="midnightblue" d="M38.12,-158.62C51.93,-163.67 71.4,-170.78 88.31,-176.96"/>
<polygon fill="midnightblue" stroke="midnightblue" points="87.31,-180.32 97.91,-180.47 89.72,-173.75 87.31,-180.32"/>
</g>
<!-- Node3 -->
<g id="node3" class="node">
<title>Node3</title>
<g id="a_node3"><a xlink:href="../../df/d82/breadth__first__search_8cpp.html#a52fd71e71134c2addbd409e5a590cbaf" target="_top" xlink:title="Function performs the breadth first search algorithm over the graph.">
<polygon fill="white" stroke="black" points="74,-85.5 74,-104.5 176,-104.5 176,-85.5 74,-85.5"/>
<text text-anchor="middle" x="125" y="-92.5" font-family="Helvetica,sans-Serif" font-size="10.00">beadth_first_search</text>
</a>
</g>
</g>
<!-- Node1&#45;&gt;Node3 -->
<g id="edge2" class="edge">
<title>Node1&#45;&gt;Node3</title>
<path fill="none" stroke="midnightblue" d="M37.64,-142.33C54.1,-133.31 78.87,-119.73 97.67,-109.43"/>
<polygon fill="midnightblue" stroke="midnightblue" points="99.53,-112.4 106.62,-104.53 96.17,-106.26 99.53,-112.4"/>
</g>
<!-- Node5 -->
<g id="node5" class="node">
<title>Node5</title>
<g id="a_node5"><a target="_blank" xlink:href="http://en.cppreference.com/w/cpp/io/manip/endl.html#" xlink:title=" ">
<polygon fill="white" stroke="black" points="232.5,-152.5 232.5,-171.5 286.5,-171.5 286.5,-152.5 232.5,-152.5"/>
<text text-anchor="middle" x="259.5" y="-159.5" font-family="Helvetica,sans-Serif" font-size="10.00">std::endl</text>
</a>
</g>
</g>
<!-- Node1&#45;&gt;Node5 -->
<g id="edge8" class="edge">
<title>Node1&#45;&gt;Node5</title>
<path fill="none" stroke="midnightblue" d="M38.32,-152.77C77.61,-154.42 170.58,-158.31 222.27,-160.48"/>
<polygon fill="midnightblue" stroke="midnightblue" points="222.19,-163.98 232.33,-160.9 222.49,-156.99 222.19,-163.98"/>
</g>
<!-- Node4 -->
<g id="node4" class="node">
<title>Node4</title>
<g id="a_node4"><a target="_blank" xlink:href="http://en.cppreference.com/w/cpp/container/queue/empty.html#" xlink:title=" ">
<polygon fill="white" stroke="black" points="212,-114.5 212,-133.5 307,-133.5 307,-114.5 212,-114.5"/>
<text text-anchor="middle" x="259.5" y="-121.5" font-family="Helvetica,sans-Serif" font-size="10.00">std::queue::empty</text>
</a>
</g>
</g>
<!-- Node3&#45;&gt;Node4 -->
<g id="edge3" class="edge">
<title>Node3&#45;&gt;Node4</title>
<path fill="none" stroke="midnightblue" d="M169.75,-104.58C180.95,-107.03 193.11,-109.69 204.75,-112.23"/>
<polygon fill="midnightblue" stroke="midnightblue" points="204.28,-115.71 214.79,-114.43 205.77,-108.88 204.28,-115.71"/>
</g>
<!-- Node3&#45;&gt;Node5 -->
<g id="edge4" class="edge">
<title>Node3&#45;&gt;Node5</title>
<path fill="none" stroke="midnightblue" d="M141.86,-104.62C158.89,-114.76 186.89,-130.92 212,-143 215.89,-144.87 220.01,-146.73 224.14,-148.51"/>
<polygon fill="midnightblue" stroke="midnightblue" points="223.07,-151.86 233.64,-152.49 225.77,-145.4 223.07,-151.86"/>
</g>
<!-- Node6 -->
<g id="node6" class="node">
<title>Node6</title>
<g id="a_node6"><a target="_blank" xlink:href="http://en.cppreference.com/w/cpp/container/queue/front.html#" xlink:title=" ">
<polygon fill="white" stroke="black" points="215.5,-76.5 215.5,-95.5 303.5,-95.5 303.5,-76.5 215.5,-76.5"/>
<text text-anchor="middle" x="259.5" y="-83.5" font-family="Helvetica,sans-Serif" font-size="10.00">std::queue::front</text>
</a>
</g>
</g>
<!-- Node3&#45;&gt;Node6 -->
<g id="edge5" class="edge">
<title>Node3&#45;&gt;Node6</title>
<path fill="none" stroke="midnightblue" d="M176.09,-91.6C185.56,-90.95 195.51,-90.28 205.08,-89.63"/>
<polygon fill="midnightblue" stroke="midnightblue" points="205.54,-93.11 215.27,-88.94 205.06,-86.12 205.54,-93.11"/>
</g>
<!-- Node7 -->
<g id="node7" class="node">
<title>Node7</title>
<g id="a_node7"><a target="_blank" xlink:href="http://en.cppreference.com/w/cpp/container/queue/pop.html#" xlink:title=" ">
<polygon fill="white" stroke="black" points="217.5,-38.5 217.5,-57.5 301.5,-57.5 301.5,-38.5 217.5,-38.5"/>
<text text-anchor="middle" x="259.5" y="-45.5" font-family="Helvetica,sans-Serif" font-size="10.00">std::queue::pop</text>
</a>
</g>
</g>
<!-- Node3&#45;&gt;Node7 -->
<g id="edge6" class="edge">
<title>Node3&#45;&gt;Node7</title>
<path fill="none" stroke="midnightblue" d="M152.81,-85.49C172.62,-78.46 199.81,-68.82 221.66,-61.07"/>
<polygon fill="midnightblue" stroke="midnightblue" points="223.02,-64.3 231.27,-57.66 220.68,-57.7 223.02,-64.3"/>
</g>
<!-- Node8 -->
<g id="node8" class="node">
<title>Node8</title>
<g id="a_node8"><a target="_blank" xlink:href="http://en.cppreference.com/w/cpp/container/queue/push.html#" xlink:title=" ">
<polygon fill="white" stroke="black" points="215,-0.5 215,-19.5 304,-19.5 304,-0.5 215,-0.5"/>
<text text-anchor="middle" x="259.5" y="-7.5" font-family="Helvetica,sans-Serif" font-size="10.00">std::queue::push</text>
</a>
</g>
</g>
<!-- Node3&#45;&gt;Node8 -->
<g id="edge7" class="edge">
<title>Node3&#45;&gt;Node8</title>
<path fill="none" stroke="midnightblue" d="M136.47,-85.46C152.04,-71.65 182.62,-45.87 212,-29 215.21,-27.15 218.64,-25.4 222.13,-23.75"/>
<polygon fill="midnightblue" stroke="midnightblue" points="223.63,-26.91 231.36,-19.67 220.8,-20.51 223.63,-26.91"/>
</g>
</g>
</svg>
