<?xml version="1.0" encoding="UTF-8" standalone="no"?>
<!DOCTYPE svg PUBLIC "-//W3C//DTD SVG 1.1//EN"
 "http://www.w3.org/Graphics/SVG/1.1/DTD/svg11.dtd">
<!-- Generated by graphviz version 2.44.0 (20200408.0750)
 -->
<!-- Title: beadth_first_search Pages: 1 -->
<svg width="241pt" height="218pt"
 viewBox="0.00 0.00 241.00 218.00" xmlns="http://www.w3.org/2000/svg" xmlns:xlink="http://www.w3.org/1999/xlink">
<g id="graph0" class="graph" transform="scale(1 1) rotate(0) translate(4 214)">
<title>beadth_first_search</title>
<polygon fill="white" stroke="transparent" points="-4,4 -4,-214 237,-214 237,4 -4,4"/>
<!-- Node1 -->
<g id="node1" class="node">
<title>Node1</title>
<g id="a_node1"><a xlink:title="Function performs the breadth first search algorithm over the graph.">
<polygon fill="#bfbfbf" stroke="black" points="0,-95.5 0,-114.5 102,-114.5 102,-95.5 0,-95.5"/>
<text text-anchor="middle" x="51" y="-102.5" font-family="Helvetica,sans-Serif" font-size="10.00">beadth_first_search</text>
</a>
</g>
</g>
<!-- Node2 -->
<g id="node2" class="node">
<title>Node2</title>
<g id="a_node2"><a target="_blank" xlink:href="http://en.cppreference.com/w/cpp/container/queue/empty.html#" xlink:title=" ">
<polygon fill="white" stroke="black" points="138,-190.5 138,-209.5 233,-209.5 233,-190.5 138,-190.5"/>
<text text-anchor="middle" x="185.5" y="-197.5" font-family="Helvetica,sans-Serif" font-size="10.00">std::queue::empty</text>
</a>
</g>
</g>
<!-- Node1&#45;&gt;Node2 -->
<g id="edge1" class="edge">
<title>Node1&#45;&gt;Node2</title>
<path fill="none" stroke="midnightblue" d="M60.71,-114.55C75.38,-130.19 106.52,-161.45 138,-181 140.98,-182.85 144.17,-184.59 147.43,-186.2"/>
<polygon fill="midnightblue" stroke="midnightblue" points="146.15,-189.47 156.7,-190.42 149.05,-183.09 146.15,-189.47"/>
</g>
<!-- Node3 -->
<g id="node3" class="node">
<title>Node3</title>
<g id="a_node3"><a target="_blank" xlink:href="http://en.cppreference.com/w/cpp/io/manip/endl.html#" xlink:title=" ">
<polygon fill="white" stroke="black" points="158.5,-152.5 158.5,-171.5 212.5,-171.5 212.5,-152.5 158.5,-152.5"/>
<text text-anchor="middle" x="185.5" y="-159.5" font-family="Helvetica,sans-Serif" font-size="10.00">std::endl</text>
</a>
</g>
</g>
<!-- Node1&#45;&gt;Node3 -->
<g id="edge2" class="edge">
<title>Node1&#45;&gt;Node3</title>
<path fill="none" stroke="midnightblue" d="M73.13,-114.54C90.5,-122.32 115.77,-133.55 138,-143 142.27,-144.81 146.77,-146.7 151.23,-148.54"/>
<polygon fill="midnightblue" stroke="midnightblue" points="150.21,-151.9 160.79,-152.46 152.87,-145.43 150.21,-151.9"/>
</g>
<!-- Node4 -->
<g id="node4" class="node">
<title>Node4</title>
<g id="a_node4"><a target="_blank" xlink:href="http://en.cppreference.com/w/cpp/container/queue/front.html#" xlink:title=" ">
<polygon fill="white" stroke="black" points="141.5,-114.5 141.5,-133.5 229.5,-133.5 229.5,-114.5 141.5,-114.5"/>
<text text-anchor="middle" x="185.5" y="-121.5" font-family="Helvetica,sans-Serif" font-size="10.00">std::queue::front</text>
</a>
</g>
</g>
<!-- Node1&#45;&gt;Node4 -->
<g id="edge3" class="edge">
<title>Node1&#45;&gt;Node4</title>
<path fill="none" stroke="midnightblue" d="M102.09,-112.18C111.56,-113.54 121.51,-114.97 131.08,-116.34"/>
<polygon fill="midnightblue" stroke="midnightblue" points="130.88,-119.85 141.27,-117.8 131.87,-112.92 130.88,-119.85"/>
</g>
<!-- Node5 -->
<g id="node5" class="node">
<title>Node5</title>
<g id="a_node5"><a target="_blank" xlink:href="http://en.cppreference.com/w/cpp/container/queue/pop.html#" xlink:title=" ">
<polygon fill="white" stroke="black" points="143.5,-76.5 143.5,-95.5 227.5,-95.5 227.5,-76.5 143.5,-76.5"/>
<text text-anchor="middle" x="185.5" y="-83.5" font-family="Helvetica,sans-Serif" font-size="10.00">std::queue::pop</text>
</a>
</g>
</g>
<!-- Node1&#45;&gt;Node5 -->
<g id="edge4" class="edge">
<title>Node1&#45;&gt;Node5</title>
<path fill="none" stroke="midnightblue" d="M102.09,-97.82C112.32,-96.35 123.09,-94.81 133.35,-93.34"/>
<polygon fill="midnightblue" stroke="midnightblue" points="133.99,-96.78 143.4,-91.89 133,-89.85 133.99,-96.78"/>
</g>
<!-- Node6 -->
<g id="node6" class="node">
<title>Node6</title>
<g id="a_node6"><a target="_blank" xlink:href="http://en.cppreference.com/w/cpp/container/queue/push.html#" xlink:title=" ">
<polygon fill="white" stroke="black" points="141,-38.5 141,-57.5 230,-57.5 230,-38.5 141,-38.5"/>
<text text-anchor="middle" x="185.5" y="-45.5" font-family="Helvetica,sans-Serif" font-size="10.00">std::queue::push</text>
</a>
</g>
</g>
<!-- Node1&#45;&gt;Node6 -->
<g id="edge5" class="edge">
<title>Node1&#45;&gt;Node6</title>
<path fill="none" stroke="midnightblue" d="M73.13,-95.46C90.5,-87.68 115.77,-76.45 138,-67 142.27,-65.19 146.77,-63.3 151.23,-61.46"/>
<polygon fill="midnightblue" stroke="midnightblue" points="152.87,-64.57 160.79,-57.54 150.21,-58.1 152.87,-64.57"/>
</g>
<!-- Node7 -->
<g id="node7" class="node">
<title>Node7</title>
<g id="a_node7"><a target="_blank" xlink:href="http://en.cppreference.com/w/cpp/container/vector/size.html#" xlink:title=" ">
<polygon fill="white" stroke="black" points="142,-0.5 142,-19.5 229,-19.5 229,-0.5 142,-0.5"/>
<text text-anchor="middle" x="185.5" y="-7.5" font-family="Helvetica,sans-Serif" font-size="10.00">std::vector::size</text>
</a>
</g>
</g>
<!-- Node1&#45;&gt;Node7 -->
<g id="edge6" class="edge">
<title>Node1&#45;&gt;Node7</title>
<path fill="none" stroke="midnightblue" d="M60.71,-95.45C75.38,-79.81 106.52,-48.55 138,-29 140.98,-27.15 144.17,-25.41 147.43,-23.8"/>
<polygon fill="midnightblue" stroke="midnightblue" points="149.05,-26.91 156.7,-19.58 146.15,-20.53 149.05,-26.91"/>
</g>
</g>
</svg>
