<?xml version="1.0" encoding="UTF-8" standalone="no"?>
<!DOCTYPE svg PUBLIC "-//W3C//DTD SVG 1.1//EN"
 "http://www.w3.org/Graphics/SVG/1.1/DTD/svg11.dtd">
<!-- Generated by graphviz version 2.44.0 (20200408.0750)
 -->
<!-- Title: main Pages: 1 -->
<svg width="315pt" height="237pt"
 viewBox="0.00 0.00 315.00 237.00" xmlns="http://www.w3.org/2000/svg" xmlns:xlink="http://www.w3.org/1999/xlink">
<g id="graph0" class="graph" transform="scale(1 1) rotate(0) translate(4 233)">
<title>main</title>
<polygon fill="white" stroke="transparent" points="-4,4 -4,-233 311,-233 311,4 -4,4"/>
<!-- Node1 -->
<g id="node1" class="node">
<title>Node1</title>
<g id="a_node1"><a xlink:title=" ">
<polygon fill="#bfbfbf" stroke="black" points="0,-171.5 0,-190.5 38,-190.5 38,-171.5 0,-171.5"/>
<text text-anchor="middle" x="19" y="-178.5" font-family="Helvetica,sans-Serif" font-size="10.00">main</text>
</a>
</g>
</g>
<!-- Node2 -->
<g id="node2" class="node">
<title>Node2</title>
<g id="a_node2"><a xlink:href="../../df/d82/breadth__first__search_8cpp.html#ad033d577caee5360f34a685e196fe3d9" target="_top" xlink:title="Adds and edge between two vertices of graph say u and v in this case.">
<polygon fill="white" stroke="black" points="97.5,-209.5 97.5,-228.5 152.5,-228.5 152.5,-209.5 97.5,-209.5"/>
<text text-anchor="middle" x="125" y="-216.5" font-family="Helvetica,sans-Serif" font-size="10.00">addEdge</text>
</a>
</g>
</g>
<!-- Node1&#45;&gt;Node2 -->
<g id="edge1" class="edge">
<title>Node1&#45;&gt;Node2</title>
<path fill="none" stroke="midnightblue" d="M38.12,-187.62C51.93,-192.67 71.4,-199.78 88.31,-205.96"/>
<polygon fill="midnightblue" stroke="midnightblue" points="87.31,-209.32 97.91,-209.47 89.72,-202.75 87.31,-209.32"/>
</g>
<!-- Node3 -->
<g id="node3" class="node">
<title>Node3</title>
<g id="a_node3"><a xlink:href="../../df/d82/breadth__first__search_8cpp.html#a52fd71e71134c2addbd409e5a590cbaf" target="_top" xlink:title="Function performs the breadth first search algorithm over the graph.">
<polygon fill="white" stroke="black" points="74,-114.5 74,-133.5 176,-133.5 176,-114.5 74,-114.5"/>
<text text-anchor="middle" x="125" y="-121.5" font-family="Helvetica,sans-Serif" font-size="10.00">beadth_first_search</text>
</a>
</g>
</g>
<!-- Node1&#45;&gt;Node3 -->
<g id="edge2" class="edge">
<title>Node1&#45;&gt;Node3</title>
<path fill="none" stroke="midnightblue" d="M37.64,-171.33C54.1,-162.31 78.87,-148.73 97.67,-138.43"/>
<polygon fill="midnightblue" stroke="midnightblue" points="99.53,-141.4 106.62,-133.53 96.17,-135.26 99.53,-141.4"/>
</g>
<!-- Node5 -->
<g id="node5" class="node">
<title>Node5</title>
<g id="a_node5"><a target="_blank" xlink:href="http://en.cppreference.com/w/cpp/io/manip/endl.html#" xlink:title=" ">
<polygon fill="white" stroke="black" points="232.5,-190.5 232.5,-209.5 286.5,-209.5 286.5,-190.5 232.5,-190.5"/>
<text text-anchor="middle" x="259.5" y="-197.5" font-family="Helvetica,sans-Serif" font-size="10.00">std::endl</text>
</a>
</g>
</g>
<!-- Node1&#45;&gt;Node5 -->
<g id="edge9" class="edge">
<title>Node1&#45;&gt;Node5</title>
<path fill="none" stroke="midnightblue" d="M38.32,-182.46C77.61,-185.59 170.58,-193 222.27,-197.11"/>
<polygon fill="midnightblue" stroke="midnightblue" points="222.08,-200.61 232.33,-197.92 222.64,-193.63 222.08,-200.61"/>
</g>
<!-- Node4 -->
<g id="node4" class="node">
<title>Node4</title>
<g id="a_node4"><a target="_blank" xlink:href="http://en.cppreference.com/w/cpp/container/queue/empty.html#" xlink:title=" ">
<polygon fill="white" stroke="black" points="212,-152.5 212,-171.5 307,-171.5 307,-152.5 212,-152.5"/>
<text text-anchor="middle" x="259.5" y="-159.5" font-family="Helvetica,sans-Serif" font-size="10.00">std::queue::empty</text>
</a>
</g>
</g>
<!-- Node3&#45;&gt;Node4 -->
<g id="edge3" class="edge">
<title>Node3&#45;&gt;Node4</title>
<path fill="none" stroke="midnightblue" d="M159.44,-133.59C176.38,-138.45 197.16,-144.41 215.31,-149.61"/>
<polygon fill="midnightblue" stroke="midnightblue" points="214.5,-153.02 225.08,-152.41 216.43,-146.29 214.5,-153.02"/>
</g>
<!-- Node3&#45;&gt;Node5 -->
<g id="edge4" class="edge">
<title>Node3&#45;&gt;Node5</title>
<path fill="none" stroke="midnightblue" d="M138.62,-133.52C154.96,-145.57 184.61,-166.51 212,-181 215.54,-182.87 219.31,-184.69 223.11,-186.4"/>
<polygon fill="midnightblue" stroke="midnightblue" points="221.93,-189.7 232.5,-190.43 224.69,-183.27 221.93,-189.7"/>
</g>
<!-- Node6 -->
<g id="node6" class="node">
<title>Node6</title>
<g id="a_node6"><a target="_blank" xlink:href="http://en.cppreference.com/w/cpp/container/queue/front.html#" xlink:title=" ">
<polygon fill="white" stroke="black" points="215.5,-114.5 215.5,-133.5 303.5,-133.5 303.5,-114.5 215.5,-114.5"/>
<text text-anchor="middle" x="259.5" y="-121.5" font-family="Helvetica,sans-Serif" font-size="10.00">std::queue::front</text>
</a>
</g>
</g>
<!-- Node3&#45;&gt;Node6 -->
<g id="edge5" class="edge">
<title>Node3&#45;&gt;Node6</title>
<path fill="none" stroke="midnightblue" d="M176.09,-124C185.56,-124 195.51,-124 205.08,-124"/>
<polygon fill="midnightblue" stroke="midnightblue" points="205.28,-127.5 215.27,-124 205.27,-120.5 205.28,-127.5"/>
</g>
<!-- Node7 -->
<g id="node7" class="node">
<title>Node7</title>
<g id="a_node7"><a target="_blank" xlink:href="http://en.cppreference.com/w/cpp/container/queue/pop.html#" xlink:title=" ">
<polygon fill="white" stroke="black" points="217.5,-76.5 217.5,-95.5 301.5,-95.5 301.5,-76.5 217.5,-76.5"/>
<text text-anchor="middle" x="259.5" y="-83.5" font-family="Helvetica,sans-Serif" font-size="10.00">std::queue::pop</text>
</a>
</g>
</g>
<!-- Node3&#45;&gt;Node7 -->
<g id="edge6" class="edge">
<title>Node3&#45;&gt;Node7</title>
<path fill="none" stroke="midnightblue" d="M159.44,-114.41C176.38,-109.55 197.16,-103.59 215.31,-98.39"/>
<polygon fill="midnightblue" stroke="midnightblue" points="216.43,-101.71 225.08,-95.59 214.5,-94.98 216.43,-101.71"/>
</g>
<!-- Node8 -->
<g id="node8" class="node">
<title>Node8</title>
<g id="a_node8"><a target="_blank" xlink:href="http://en.cppreference.com/w/cpp/container/queue/push.html#" xlink:title=" ">
<polygon fill="white" stroke="black" points="215,-38.5 215,-57.5 304,-57.5 304,-38.5 215,-38.5"/>
<text text-anchor="middle" x="259.5" y="-45.5" font-family="Helvetica,sans-Serif" font-size="10.00">std::queue::push</text>
</a>
</g>
</g>
<!-- Node3&#45;&gt;Node8 -->
<g id="edge7" class="edge">
<title>Node3&#45;&gt;Node8</title>
<path fill="none" stroke="midnightblue" d="M138.62,-114.48C154.96,-102.43 184.61,-81.49 212,-67 215.54,-65.13 219.31,-63.31 223.11,-61.6"/>
<polygon fill="midnightblue" stroke="midnightblue" points="224.69,-64.73 232.5,-57.57 221.93,-58.3 224.69,-64.73"/>
</g>
<!-- Node9 -->
<g id="node9" class="node">
<title>Node9</title>
<g id="a_node9"><a target="_blank" xlink:href="http://en.cppreference.com/w/cpp/container/vector/size.html#" xlink:title=" ">
<polygon fill="white" stroke="black" points="216,-0.5 216,-19.5 303,-19.5 303,-0.5 216,-0.5"/>
<text text-anchor="middle" x="259.5" y="-7.5" font-family="Helvetica,sans-Serif" font-size="10.00">std::vector::size</text>
</a>
</g>
</g>
<!-- Node3&#45;&gt;Node9 -->
<g id="edge8" class="edge">
<title>Node3&#45;&gt;Node9</title>
<path fill="none" stroke="midnightblue" d="M132.47,-114.34C145.49,-95.56 176.66,-53.78 212,-29 214.56,-27.21 217.31,-25.54 220.16,-24.01"/>
<polygon fill="midnightblue" stroke="midnightblue" points="221.94,-27.03 229.42,-19.54 218.89,-20.73 221.94,-27.03"/>
</g>
</g>
</svg>
