<?xml version="1.0" encoding="UTF-8" standalone="no"?>
<!DOCTYPE svg PUBLIC "-//W3C//DTD SVG 1.1//EN"
 "http://www.w3.org/Graphics/SVG/1.1/DTD/svg11.dtd">
<!-- Generated by graphviz version 2.44.0 (20200408.0750)
 -->
<!-- Title: tests Pages: 1 -->
<svg width="332pt" height="338pt"
 viewBox="0.00 0.00 332.00 338.00" xmlns="http://www.w3.org/2000/svg" xmlns:xlink="http://www.w3.org/1999/xlink">
<g id="graph0" class="graph" transform="scale(1 1) rotate(0) translate(4 334)">
<title>tests</title>
<polygon fill="white" stroke="transparent" points="-4,4 -4,-334 328,-334 328,4 -4,4"/>
<!-- Node1 -->
<g id="node1" class="node">
<title>Node1</title>
<g id="a_node1"><a xlink:title=" ">
<polygon fill="#bfbfbf" stroke="black" points="0,-133.5 0,-152.5 38,-152.5 38,-133.5 0,-133.5"/>
<text text-anchor="middle" x="19" y="-140.5" font-family="Helvetica,sans-Serif" font-size="10.00">tests</text>
</a>
</g>
</g>
<!-- Node2 -->
<g id="node2" class="node">
<title>Node2</title>
<g id="a_node2"><a xlink:href="../../dd/d9b/classgraph.html#a35c12fba596d8bb48b1877b128c4ba6d" target="_top" xlink:title="Function that add edge between two nodes or vertices of graph.">
<polygon fill="white" stroke="black" points="80.5,-278.5 80.5,-297.5 165.5,-297.5 165.5,-278.5 80.5,-278.5"/>
<text text-anchor="middle" x="123" y="-285.5" font-family="Helvetica,sans-Serif" font-size="10.00">graph::addEdge</text>
</a>
</g>
</g>
<!-- Node1&#45;&gt;Node2 -->
<g id="edge1" class="edge">
<title>Node1&#45;&gt;Node2</title>
<path fill="none" stroke="midnightblue" d="M21.53,-152.63C25.7,-175.83 39.36,-235.32 74,-269 75.62,-270.57 77.38,-272.02 79.25,-273.35"/>
<polygon fill="midnightblue" stroke="midnightblue" points="77.55,-276.42 87.95,-278.48 81.11,-270.39 77.55,-276.42"/>
</g>
<!-- Node3 -->
<g id="node3" class="node">
<title>Node3</title>
<g id="a_node3"><a xlink:href="../../df/dce/namespacegraph.html#afe9bfdfdcd95d48d12bf675f26066110" target="_top" xlink:title="Function performs the breadth first search algorithm over the graph.">
<polygon fill="white" stroke="black" points="74,-229 74,-259 172,-259 172,-229 74,-229"/>
<text text-anchor="start" x="82" y="-247" font-family="Helvetica,sans-Serif" font-size="10.00">graph::beadth_first</text>
<text text-anchor="middle" x="123" y="-236" font-family="Helvetica,sans-Serif" font-size="10.00">_search</text>
</a>
</g>
</g>
<!-- Node1&#45;&gt;Node3 -->
<g id="edge2" class="edge">
<title>Node1&#45;&gt;Node3</title>
<path fill="none" stroke="midnightblue" d="M24.81,-152.5C33.08,-168.07 51.3,-199.23 74,-219 75.73,-220.5 77.56,-221.95 79.46,-223.33"/>
<polygon fill="midnightblue" stroke="midnightblue" points="77.86,-226.46 88.15,-228.99 81.68,-220.6 77.86,-226.46"/>
</g>
<!-- Node9 -->
<g id="node9" class="node">
<title>Node9</title>
<g id="a_node9"><a target="_blank" xlink:href="http://en.cppreference.com/w/cpp/container/vector/begin.html#" xlink:title=" ">
<polygon fill="white" stroke="black" points="77,-190.5 77,-209.5 169,-209.5 169,-190.5 77,-190.5"/>
<text text-anchor="middle" x="123" y="-197.5" font-family="Helvetica,sans-Serif" font-size="10.00">std::vector::begin</text>
</a>
</g>
</g>
<!-- Node1&#45;&gt;Node9 -->
<g id="edge8" class="edge">
<title>Node1&#45;&gt;Node9</title>
<path fill="none" stroke="midnightblue" d="M31.9,-152.62C42.51,-160.88 58.67,-172.72 74,-181 77.54,-182.91 81.31,-184.73 85.12,-186.44"/>
<polygon fill="midnightblue" stroke="midnightblue" points="84.01,-189.77 94.58,-190.44 86.73,-183.32 84.01,-189.77"/>
</g>
<!-- Node10 -->
<g id="node10" class="node">
<title>Node10</title>
<g id="a_node10"><a target="_blank" xlink:href="http://en.cppreference.com/w/cpp/container/vector/clear.html#" xlink:title=" ">
<polygon fill="white" stroke="black" points="78,-152.5 78,-171.5 168,-171.5 168,-152.5 78,-152.5"/>
<text text-anchor="middle" x="123" y="-159.5" font-family="Helvetica,sans-Serif" font-size="10.00">std::vector::clear</text>
</a>
</g>
</g>
<!-- Node1&#45;&gt;Node10 -->
<g id="edge9" class="edge">
<title>Node1&#45;&gt;Node10</title>
<path fill="none" stroke="midnightblue" d="M38.24,-146.4C46.57,-147.95 56.94,-149.88 67.5,-151.85"/>
<polygon fill="midnightblue" stroke="midnightblue" points="67.16,-155.34 77.63,-153.74 68.44,-148.46 67.16,-155.34"/>
</g>
<!-- Node11 -->
<g id="node11" class="node">
<title>Node11</title>
<g id="a_node11"><a target="_blank" xlink:href="http://en.cppreference.com/w/cpp/container/vector/end.html#" xlink:title=" ">
<polygon fill="white" stroke="black" points="80.5,-114.5 80.5,-133.5 165.5,-133.5 165.5,-114.5 80.5,-114.5"/>
<text text-anchor="middle" x="123" y="-121.5" font-family="Helvetica,sans-Serif" font-size="10.00">std::vector::end</text>
</a>
</g>
</g>
<!-- Node1&#45;&gt;Node11 -->
<g id="edge10" class="edge">
<title>Node1&#45;&gt;Node11</title>
<path fill="none" stroke="midnightblue" d="M38.24,-139.6C47.28,-137.92 58.7,-135.79 70.18,-133.65"/>
<polygon fill="midnightblue" stroke="midnightblue" points="71.03,-137.05 80.22,-131.78 69.75,-130.17 71.03,-137.05"/>
</g>
<!-- Node12 -->
<g id="node12" class="node">
<title>Node12</title>
<g id="a_node12"><a target="_blank" xlink:href="http://en.cppreference.com/w/cpp/io/manip/endl.html#" xlink:title=" ">
<polygon fill="white" stroke="black" points="96,-76.5 96,-95.5 150,-95.5 150,-76.5 96,-76.5"/>
<text text-anchor="middle" x="123" y="-83.5" font-family="Helvetica,sans-Serif" font-size="10.00">std::endl</text>
</a>
</g>
</g>
<!-- Node1&#45;&gt;Node12 -->
<g id="edge11" class="edge">
<title>Node1&#45;&gt;Node12</title>
<path fill="none" stroke="midnightblue" d="M31.9,-133.38C42.51,-125.12 58.67,-113.28 74,-105 77.97,-102.86 82.23,-100.82 86.51,-98.94"/>
<polygon fill="midnightblue" stroke="midnightblue" points="87.94,-102.14 95.83,-95.07 85.26,-95.67 87.94,-102.14"/>
</g>
<!-- Node13 -->
<g id="node13" class="node">
<title>Node13</title>
<g id="a_node13"><a target="_blank" xlink:href="http://en.cppreference.com/w/cpp/algorithm/equal.html#" xlink:title=" ">
<polygon fill="white" stroke="black" points="93.5,-38.5 93.5,-57.5 152.5,-57.5 152.5,-38.5 93.5,-38.5"/>
<text text-anchor="middle" x="123" y="-45.5" font-family="Helvetica,sans-Serif" font-size="10.00">std::equal</text>
</a>
</g>
</g>
<!-- Node1&#45;&gt;Node13 -->
<g id="edge12" class="edge">
<title>Node1&#45;&gt;Node13</title>
<path fill="none" stroke="midnightblue" d="M24.46,-133.48C32.35,-117.62 50.18,-85.68 74,-67 77.12,-64.55 80.6,-62.38 84.22,-60.46"/>
<polygon fill="midnightblue" stroke="midnightblue" points="85.78,-63.6 93.38,-56.22 82.84,-57.25 85.78,-63.6"/>
</g>
<!-- Node14 -->
<g id="node14" class="node">
<title>Node14</title>
<g id="a_node14"><a target="_blank" xlink:href="http://en.cppreference.com/w/cpp/container/vector/resize.html#" xlink:title=" ">
<polygon fill="white" stroke="black" points="75.5,-0.5 75.5,-19.5 170.5,-19.5 170.5,-0.5 75.5,-0.5"/>
<text text-anchor="middle" x="123" y="-7.5" font-family="Helvetica,sans-Serif" font-size="10.00">std::vector::resize</text>
</a>
</g>
</g>
<!-- Node1&#45;&gt;Node14 -->
<g id="edge13" class="edge">
<title>Node1&#45;&gt;Node14</title>
<path fill="none" stroke="midnightblue" d="M22.03,-133.32C27.06,-111.68 42.03,-58.94 74,-29 75.65,-27.46 77.44,-26.03 79.32,-24.72"/>
<polygon fill="midnightblue" stroke="midnightblue" points="81.17,-27.69 88.07,-19.65 77.66,-21.64 81.17,-27.69"/>
</g>
<!-- Node4 -->
<g id="node4" class="node">
<title>Node4</title>
<g id="a_node4"><a target="_blank" xlink:href="http://en.cppreference.com/w/cpp/container/queue/empty.html#" xlink:title=" ">
<polygon fill="white" stroke="black" points="218.5,-310.5 218.5,-329.5 313.5,-329.5 313.5,-310.5 218.5,-310.5"/>
<text text-anchor="middle" x="266" y="-317.5" font-family="Helvetica,sans-Serif" font-size="10.00">std::queue::empty</text>
</a>
</g>
</g>
<!-- Node3&#45;&gt;Node4 -->
<g id="edge3" class="edge">
<title>Node3&#45;&gt;Node4</title>
<path fill="none" stroke="midnightblue" d="M155.64,-259.06C161.23,-262.11 166.89,-265.48 172,-269 189.63,-281.15 189.47,-290.29 208,-301 211.66,-303.11 215.58,-305.04 219.6,-306.77"/>
<polygon fill="midnightblue" stroke="midnightblue" points="218.48,-310.09 229.07,-310.49 221.04,-303.57 218.48,-310.09"/>
</g>
<!-- Node5 -->
<g id="node5" class="node">
<title>Node5</title>
<g id="a_node5"><a target="_blank" xlink:href="http://en.cppreference.com/w/cpp/container/queue/front.html#" xlink:title=" ">
<polygon fill="white" stroke="black" points="222,-272.5 222,-291.5 310,-291.5 310,-272.5 222,-272.5"/>
<text text-anchor="middle" x="266" y="-279.5" font-family="Helvetica,sans-Serif" font-size="10.00">std::queue::front</text>
</a>
</g>
</g>
<!-- Node3&#45;&gt;Node5 -->
<g id="edge4" class="edge">
<title>Node3&#45;&gt;Node5</title>
<path fill="none" stroke="midnightblue" d="M172.13,-256.97C187.57,-261.13 204.62,-265.73 219.84,-269.83"/>
<polygon fill="midnightblue" stroke="midnightblue" points="218.98,-273.22 229.55,-272.45 220.8,-266.46 218.98,-273.22"/>
</g>
<!-- Node6 -->
<g id="node6" class="node">
<title>Node6</title>
<g id="a_node6"><a target="_blank" xlink:href="http://en.cppreference.com/w/cpp/container/queue/pop.html#" xlink:title=" ">
<polygon fill="white" stroke="black" points="224,-234.5 224,-253.5 308,-253.5 308,-234.5 224,-234.5"/>
<text text-anchor="middle" x="266" y="-241.5" font-family="Helvetica,sans-Serif" font-size="10.00">std::queue::pop</text>
</a>
</g>
</g>
<!-- Node3&#45;&gt;Node6 -->
<g id="edge5" class="edge">
<title>Node3&#45;&gt;Node6</title>
<path fill="none" stroke="midnightblue" d="M172.13,-244C185.48,-244 200.02,-244 213.56,-244"/>
<polygon fill="midnightblue" stroke="midnightblue" points="213.67,-247.5 223.67,-244 213.67,-240.5 213.67,-247.5"/>
</g>
<!-- Node7 -->
<g id="node7" class="node">
<title>Node7</title>
<g id="a_node7"><a target="_blank" xlink:href="http://en.cppreference.com/w/cpp/container/queue/push.html#" xlink:title=" ">
<polygon fill="white" stroke="black" points="221.5,-196.5 221.5,-215.5 310.5,-215.5 310.5,-196.5 221.5,-196.5"/>
<text text-anchor="middle" x="266" y="-203.5" font-family="Helvetica,sans-Serif" font-size="10.00">std::queue::push</text>
</a>
</g>
</g>
<!-- Node3&#45;&gt;Node7 -->
<g id="edge6" class="edge">
<title>Node3&#45;&gt;Node7</title>
<path fill="none" stroke="midnightblue" d="M172.13,-231.03C187.57,-226.87 204.62,-222.27 219.84,-218.17"/>
<polygon fill="midnightblue" stroke="midnightblue" points="220.8,-221.54 229.55,-215.55 218.98,-214.78 220.8,-221.54"/>
</g>
<!-- Node8 -->
<g id="node8" class="node">
<title>Node8</title>
<g id="a_node8"><a target="_blank" xlink:href="http://en.cppreference.com/w/cpp/container/vector/push_back.html#" xlink:title=" ">
<polygon fill="white" stroke="black" points="208,-158.5 208,-177.5 324,-177.5 324,-158.5 208,-158.5"/>
<text text-anchor="middle" x="266" y="-165.5" font-family="Helvetica,sans-Serif" font-size="10.00">std::vector::push_back</text>
</a>
</g>
</g>
<!-- Node3&#45;&gt;Node8 -->
<g id="edge7" class="edge">
<title>Node3&#45;&gt;Node8</title>
<path fill="none" stroke="midnightblue" d="M155.64,-228.94C161.23,-225.89 166.89,-222.52 172,-219 189.63,-206.85 189.47,-197.71 208,-187 211.66,-184.89 215.58,-182.96 219.6,-181.23"/>
<polygon fill="midnightblue" stroke="midnightblue" points="221.04,-184.43 229.07,-177.51 218.48,-177.91 221.04,-184.43"/>
</g>
</g>
</svg>
