<?xml version="1.0" encoding="UTF-8" standalone="no"?>
<!DOCTYPE svg PUBLIC "-//W3C//DTD SVG 1.1//EN"
 "http://www.w3.org/Graphics/SVG/1.1/DTD/svg11.dtd">
<!-- Generated by graphviz version 2.44.0 (20200408.0750)
 -->
<!-- Title: main Pages: 1 -->
<svg width="311pt" height="142pt"
 viewBox="0.00 0.00 311.00 142.00" xmlns="http://www.w3.org/2000/svg" xmlns:xlink="http://www.w3.org/1999/xlink">
<g id="graph0" class="graph" transform="scale(1 1) rotate(0) translate(4 138)">
<title>main</title>
<polygon fill="white" stroke="transparent" points="-4,4 -4,-138 307,-138 307,4 -4,4"/>
<!-- Node1 -->
<g id="node1" class="node">
<title>Node1</title>
<g id="a_node1"><a xlink:title=" ">
<polygon fill="#bfbfbf" stroke="black" points="0,-57.5 0,-76.5 38,-76.5 38,-57.5 0,-57.5"/>
<text text-anchor="middle" x="19" y="-64.5" font-family="Helvetica,sans-Serif" font-size="10.00">main</text>
</a>
</g>
</g>
<!-- Node2 -->
<g id="node2" class="node">
<title>Node2</title>
<g id="a_node2"><a xlink:href="../../dd/d9b/classgraph.html#a35c12fba596d8bb48b1877b128c4ba6d" target="_top" xlink:title="Function that add edge between two nodes or vertices of graph.">
<polygon fill="white" stroke="black" points="80.5,-101.5 80.5,-120.5 165.5,-120.5 165.5,-101.5 80.5,-101.5"/>
<text text-anchor="middle" x="123" y="-108.5" font-family="Helvetica,sans-Serif" font-size="10.00">graph::addEdge</text>
</a>
</g>
</g>
<!-- Node1&#45;&gt;Node2 -->
<g id="edge1" class="edge">
<title>Node1&#45;&gt;Node2</title>
<path fill="none" stroke="midnightblue" d="M38.38,-75.82C48.77,-80.73 62.04,-86.87 74,-92 78.4,-93.89 83.06,-95.82 87.67,-97.68"/>
<polygon fill="midnightblue" stroke="midnightblue" points="86.39,-100.94 96.98,-101.41 88.99,-94.44 86.39,-100.94"/>
</g>
<!-- Node3 -->
<g id="node3" class="node">
<title>Node3</title>
<g id="a_node3"><a xlink:href="../../df/dce/namespacegraph.html#a64869d64f062a49918b4cc95ac9ec32f" target="_top" xlink:title="Function performs the breadth first search algorithm over the graph.">
<polygon fill="white" stroke="black" points="74,-52 74,-82 172,-82 172,-52 74,-52"/>
<text text-anchor="start" x="82" y="-70" font-family="Helvetica,sans-Serif" font-size="10.00">graph::beadth_first</text>
<text text-anchor="middle" x="123" y="-59" font-family="Helvetica,sans-Serif" font-size="10.00">_search</text>
</a>
</g>
</g>
<!-- Node1&#45;&gt;Node3 -->
<g id="edge2" class="edge">
<title>Node1&#45;&gt;Node3</title>
<path fill="none" stroke="midnightblue" d="M38.24,-67C45.56,-67 54.44,-67 63.65,-67"/>
<polygon fill="midnightblue" stroke="midnightblue" points="63.72,-70.5 73.72,-67 63.72,-63.5 63.72,-70.5"/>
</g>
<!-- Node8 -->
<g id="node8" class="node">
<title>Node8</title>
<g id="a_node8"><a target="_blank" xlink:href="http://en.cppreference.com/w/cpp/io/manip/endl.html#" xlink:title=" ">
<polygon fill="white" stroke="black" points="96,-13.5 96,-32.5 150,-32.5 150,-13.5 96,-13.5"/>
<text text-anchor="middle" x="123" y="-20.5" font-family="Helvetica,sans-Serif" font-size="10.00">std::endl</text>
</a>
</g>
</g>
<!-- Node1&#45;&gt;Node8 -->
<g id="edge7" class="edge">
<title>Node1&#45;&gt;Node8</title>
<path fill="none" stroke="midnightblue" d="M38.38,-58.18C48.77,-53.27 62.04,-47.13 74,-42 78.4,-40.11 83.06,-38.18 87.67,-36.32"/>
<polygon fill="midnightblue" stroke="midnightblue" points="88.99,-39.56 96.98,-32.59 86.39,-33.06 88.99,-39.56"/>
</g>
<!-- Node4 -->
<g id="node4" class="node">
<title>Node4</title>
<g id="a_node4"><a target="_blank" xlink:href="http://en.cppreference.com/w/cpp/container/queue/empty.html#" xlink:title=" ">
<polygon fill="white" stroke="black" points="208,-114.5 208,-133.5 303,-133.5 303,-114.5 208,-114.5"/>
<text text-anchor="middle" x="255.5" y="-121.5" font-family="Helvetica,sans-Serif" font-size="10.00">std::queue::empty</text>
</a>
</g>
</g>
<!-- Node3&#45;&gt;Node4 -->
<g id="edge3" class="edge">
<title>Node3&#45;&gt;Node4</title>
<path fill="none" stroke="midnightblue" d="M156.59,-82.08C172.1,-89.17 190.94,-97.66 208,-105 212.17,-106.79 216.56,-108.64 220.92,-110.45"/>
<polygon fill="midnightblue" stroke="midnightblue" points="219.72,-113.74 230.29,-114.31 222.38,-107.27 219.72,-113.74"/>
</g>
<!-- Node5 -->
<g id="node5" class="node">
<title>Node5</title>
<g id="a_node5"><a target="_blank" xlink:href="http://en.cppreference.com/w/cpp/container/queue/front.html#" xlink:title=" ">
<polygon fill="white" stroke="black" points="211.5,-76.5 211.5,-95.5 299.5,-95.5 299.5,-76.5 211.5,-76.5"/>
<text text-anchor="middle" x="255.5" y="-83.5" font-family="Helvetica,sans-Serif" font-size="10.00">std::queue::front</text>
</a>
</g>
</g>
<!-- Node3&#45;&gt;Node5 -->
<g id="edge4" class="edge">
<title>Node3&#45;&gt;Node5</title>
<path fill="none" stroke="midnightblue" d="M172.22,-74.02C181.61,-75.39 191.5,-76.83 201.04,-78.22"/>
<polygon fill="midnightblue" stroke="midnightblue" points="200.82,-81.72 211.22,-79.7 201.82,-74.79 200.82,-81.72"/>
</g>
<!-- Node6 -->
<g id="node6" class="node">
<title>Node6</title>
<g id="a_node6"><a target="_blank" xlink:href="http://en.cppreference.com/w/cpp/container/queue/pop.html#" xlink:title=" ">
<polygon fill="white" stroke="black" points="213.5,-38.5 213.5,-57.5 297.5,-57.5 297.5,-38.5 213.5,-38.5"/>
<text text-anchor="middle" x="255.5" y="-45.5" font-family="Helvetica,sans-Serif" font-size="10.00">std::queue::pop</text>
</a>
</g>
</g>
<!-- Node3&#45;&gt;Node6 -->
<g id="edge5" class="edge">
<title>Node3&#45;&gt;Node6</title>
<path fill="none" stroke="midnightblue" d="M172.22,-59.98C182.35,-58.5 193.07,-56.94 203.3,-55.45"/>
<polygon fill="midnightblue" stroke="midnightblue" points="203.94,-58.9 213.33,-53.99 202.93,-51.97 203.94,-58.9"/>
</g>
<!-- Node7 -->
<g id="node7" class="node">
<title>Node7</title>
<g id="a_node7"><a target="_blank" xlink:href="http://en.cppreference.com/w/cpp/container/queue/push.html#" xlink:title=" ">
<polygon fill="white" stroke="black" points="211,-0.5 211,-19.5 300,-19.5 300,-0.5 211,-0.5"/>
<text text-anchor="middle" x="255.5" y="-7.5" font-family="Helvetica,sans-Serif" font-size="10.00">std::queue::push</text>
</a>
</g>
</g>
<!-- Node3&#45;&gt;Node7 -->
<g id="edge6" class="edge">
<title>Node3&#45;&gt;Node7</title>
<path fill="none" stroke="midnightblue" d="M156.59,-51.92C172.1,-44.83 190.94,-36.34 208,-29 212.17,-27.21 216.56,-25.36 220.92,-23.55"/>
<polygon fill="midnightblue" stroke="midnightblue" points="222.38,-26.73 230.29,-19.69 219.72,-20.26 222.38,-26.73"/>
</g>
</g>
</svg>
