<?xml version="1.0" encoding="UTF-8" standalone="no"?>
<!DOCTYPE svg PUBLIC "-//W3C//DTD SVG 1.1//EN"
 "http://www.w3.org/Graphics/SVG/1.1/DTD/svg11.dtd">
<!-- Generated by graphviz version 2.44.0 (20200408.0750)
 -->
<!-- Title: beadth_first_search Pages: 1 -->
<svg width="241pt" height="180pt"
 viewBox="0.00 0.00 241.00 180.00" xmlns="http://www.w3.org/2000/svg" xmlns:xlink="http://www.w3.org/1999/xlink">
<g id="graph0" class="graph" transform="scale(1 1) rotate(0) translate(4 176)">
<title>beadth_first_search</title>
<polygon fill="white" stroke="transparent" points="-4,4 -4,-176 237,-176 237,4 -4,4"/>
<!-- Node1 -->
<g id="node1" class="node">
<title>Node1</title>
<g id="a_node1"><a xlink:title="Function performs the breadth first search algorithm over the graph.">
<polygon fill="#bfbfbf" stroke="black" points="0,-76.5 0,-95.5 102,-95.5 102,-76.5 0,-76.5"/>
<text text-anchor="middle" x="51" y="-83.5" font-family="Helvetica,sans-Serif" font-size="10.00">beadth_first_search</text>
</a>
</g>
</g>
<!-- Node2 -->
<g id="node2" class="node">
<title>Node2</title>
<g id="a_node2"><a target="_blank" xlink:href="http://en.cppreference.com/w/cpp/container/queue/empty.html#" xlink:title=" ">
<polygon fill="white" stroke="black" points="138,-152.5 138,-171.5 233,-171.5 233,-152.5 138,-152.5"/>
<text text-anchor="middle" x="185.5" y="-159.5" font-family="Helvetica,sans-Serif" font-size="10.00">std::queue::empty</text>
</a>
</g>
</g>
<!-- Node1&#45;&gt;Node2 -->
<g id="edge1" class="edge">
<title>Node1&#45;&gt;Node2</title>
<path fill="none" stroke="midnightblue" d="M64.62,-95.52C80.96,-107.57 110.61,-128.51 138,-143 141.54,-144.87 145.31,-146.69 149.11,-148.4"/>
<polygon fill="midnightblue" stroke="midnightblue" points="147.93,-151.7 158.5,-152.43 150.69,-145.27 147.93,-151.7"/>
</g>
<!-- Node3 -->
<g id="node3" class="node">
<title>Node3</title>
<g id="a_node3"><a target="_blank" xlink:href="http://en.cppreference.com/w/cpp/io/manip/endl.html#" xlink:title=" ">
<polygon fill="white" stroke="black" points="158.5,-114.5 158.5,-133.5 212.5,-133.5 212.5,-114.5 158.5,-114.5"/>
<text text-anchor="middle" x="185.5" y="-121.5" font-family="Helvetica,sans-Serif" font-size="10.00">std::endl</text>
</a>
</g>
</g>
<!-- Node1&#45;&gt;Node3 -->
<g id="edge2" class="edge">
<title>Node1&#45;&gt;Node3</title>
<path fill="none" stroke="midnightblue" d="M85.44,-95.59C104.63,-101.09 128.74,-108.01 148.37,-113.64"/>
<polygon fill="midnightblue" stroke="midnightblue" points="147.6,-117.06 158.17,-116.45 149.53,-110.33 147.6,-117.06"/>
</g>
<!-- Node4 -->
<g id="node4" class="node">
<title>Node4</title>
<g id="a_node4"><a target="_blank" xlink:href="http://en.cppreference.com/w/cpp/container/queue/front.html#" xlink:title=" ">
<polygon fill="white" stroke="black" points="141.5,-76.5 141.5,-95.5 229.5,-95.5 229.5,-76.5 141.5,-76.5"/>
<text text-anchor="middle" x="185.5" y="-83.5" font-family="Helvetica,sans-Serif" font-size="10.00">std::queue::front</text>
</a>
</g>
</g>
<!-- Node1&#45;&gt;Node4 -->
<g id="edge3" class="edge">
<title>Node1&#45;&gt;Node4</title>
<path fill="none" stroke="midnightblue" d="M102.09,-86C111.56,-86 121.51,-86 131.08,-86"/>
<polygon fill="midnightblue" stroke="midnightblue" points="131.28,-89.5 141.27,-86 131.27,-82.5 131.28,-89.5"/>
</g>
<!-- Node5 -->
<g id="node5" class="node">
<title>Node5</title>
<g id="a_node5"><a target="_blank" xlink:href="http://en.cppreference.com/w/cpp/container/queue/pop.html#" xlink:title=" ">
<polygon fill="white" stroke="black" points="143.5,-38.5 143.5,-57.5 227.5,-57.5 227.5,-38.5 143.5,-38.5"/>
<text text-anchor="middle" x="185.5" y="-45.5" font-family="Helvetica,sans-Serif" font-size="10.00">std::queue::pop</text>
</a>
</g>
</g>
<!-- Node1&#45;&gt;Node5 -->
<g id="edge4" class="edge">
<title>Node1&#45;&gt;Node5</title>
<path fill="none" stroke="midnightblue" d="M85.44,-76.41C102.38,-71.55 123.16,-65.59 141.31,-60.39"/>
<polygon fill="midnightblue" stroke="midnightblue" points="142.43,-63.71 151.08,-57.59 140.5,-56.98 142.43,-63.71"/>
</g>
<!-- Node6 -->
<g id="node6" class="node">
<title>Node6</title>
<g id="a_node6"><a target="_blank" xlink:href="http://en.cppreference.com/w/cpp/container/queue/push.html#" xlink:title=" ">
<polygon fill="white" stroke="black" points="141,-0.5 141,-19.5 230,-19.5 230,-0.5 141,-0.5"/>
<text text-anchor="middle" x="185.5" y="-7.5" font-family="Helvetica,sans-Serif" font-size="10.00">std::queue::push</text>
</a>
</g>
</g>
<!-- Node1&#45;&gt;Node6 -->
<g id="edge5" class="edge">
<title>Node1&#45;&gt;Node6</title>
<path fill="none" stroke="midnightblue" d="M64.62,-76.48C80.96,-64.43 110.61,-43.49 138,-29 141.54,-27.13 145.31,-25.31 149.11,-23.6"/>
<polygon fill="midnightblue" stroke="midnightblue" points="150.69,-26.73 158.5,-19.57 147.93,-20.3 150.69,-26.73"/>
</g>
</g>
</svg>
