<?xml version="1.0" encoding="UTF-8" standalone="no"?>
<!DOCTYPE svg PUBLIC "-//W3C//DTD SVG 1.1//EN"
 "http://www.w3.org/Graphics/SVG/1.1/DTD/svg11.dtd">
<!-- Generated by graphviz version 2.44.0 (20200408.0750)
 -->
<!-- Title: main Pages: 1 -->
<svg width="406pt" height="338pt"
 viewBox="0.00 0.00 406.00 338.00" xmlns="http://www.w3.org/2000/svg" xmlns:xlink="http://www.w3.org/1999/xlink">
<g id="graph0" class="graph" transform="scale(1 1) rotate(0) translate(4 334)">
<title>main</title>
<polygon fill="white" stroke="transparent" points="-4,4 -4,-334 402,-334 402,4 -4,4"/>
<!-- Node1 -->
<g id="node1" class="node">
<title>Node1</title>
<g id="a_node1"><a xlink:title=" ">
<polygon fill="#bfbfbf" stroke="black" points="0,-210.5 0,-229.5 38,-229.5 38,-210.5 0,-210.5"/>
<text text-anchor="middle" x="19" y="-217.5" font-family="Helvetica,sans-Serif" font-size="10.00">main</text>
</a>
</g>
</g>
<!-- Node2 -->
<g id="node2" class="node">
<title>Node2</title>
<g id="a_node2"><a xlink:href="../../dd/d9b/classgraph.html#a35c12fba596d8bb48b1877b128c4ba6d" target="_top" xlink:title="Function that add edge between two nodes or vertices of graph.">
<polygon fill="white" stroke="black" points="154.5,-278.5 154.5,-297.5 239.5,-297.5 239.5,-278.5 154.5,-278.5"/>
<text text-anchor="middle" x="197" y="-285.5" font-family="Helvetica,sans-Serif" font-size="10.00">graph::addEdge</text>
</a>
</g>
</g>
<!-- Node1&#45;&gt;Node2 -->
<g id="edge1" class="edge">
<title>Node1&#45;&gt;Node2</title>
<path fill="none" stroke="midnightblue" d="M38.35,-228.55C48.74,-233.29 62.01,-239.18 74,-244 101.91,-255.22 133.91,-266.71 158.14,-275.14"/>
<polygon fill="midnightblue" stroke="midnightblue" points="157.08,-278.47 167.68,-278.43 159.37,-271.86 157.08,-278.47"/>
</g>
<!-- Node3 -->
<g id="node3" class="node">
<title>Node3</title>
<g id="a_node3"><a xlink:href="../../df/dce/namespacegraph.html#afe9bfdfdcd95d48d12bf675f26066110" target="_top" xlink:title="Function performs the breadth first search algorithm over the graph.">
<polygon fill="white" stroke="black" points="148,-229 148,-259 246,-259 246,-229 148,-229"/>
<text text-anchor="start" x="156" y="-247" font-family="Helvetica,sans-Serif" font-size="10.00">graph::beadth_first</text>
<text text-anchor="middle" x="197" y="-236" font-family="Helvetica,sans-Serif" font-size="10.00">_search</text>
</a>
</g>
</g>
<!-- Node1&#45;&gt;Node3 -->
<g id="edge2" class="edge">
<title>Node1&#45;&gt;Node3</title>
<path fill="none" stroke="midnightblue" d="M38.17,-222.48C61.51,-225.66 103.15,-231.34 137.8,-236.06"/>
<polygon fill="midnightblue" stroke="midnightblue" points="137.45,-239.55 147.83,-237.43 138.39,-232.61 137.45,-239.55"/>
</g>
<!-- Node9 -->
<g id="node9" class="node">
<title>Node9</title>
<g id="a_node9"><a target="_blank" xlink:href="http://en.cppreference.com/w/cpp/io/manip/endl.html#" xlink:title=" ">
<polygon fill="white" stroke="black" points="170,-190.5 170,-209.5 224,-209.5 224,-190.5 170,-190.5"/>
<text text-anchor="middle" x="197" y="-197.5" font-family="Helvetica,sans-Serif" font-size="10.00">std::endl</text>
</a>
</g>
</g>
<!-- Node1&#45;&gt;Node9 -->
<g id="edge8" class="edge">
<title>Node1&#45;&gt;Node9</title>
<path fill="none" stroke="midnightblue" d="M38.17,-217.93C66.71,-214.69 122.59,-208.34 159.62,-204.13"/>
<polygon fill="midnightblue" stroke="midnightblue" points="160.44,-207.56 169.98,-202.96 159.65,-200.61 160.44,-207.56"/>
</g>
<!-- Node10 -->
<g id="node10" class="node">
<title>Node10</title>
<g id="a_node10"><a xlink:href="../../df/d82/breadth__first__search_8cpp.html#a88ec9ad42717780d6caaff9d3d6977f9" target="_top" xlink:title=" ">
<polygon fill="white" stroke="black" points="74,-152.5 74,-171.5 112,-171.5 112,-152.5 74,-152.5"/>
<text text-anchor="middle" x="93" y="-159.5" font-family="Helvetica,sans-Serif" font-size="10.00">tests</text>
</a>
</g>
</g>
<!-- Node1&#45;&gt;Node10 -->
<g id="edge9" class="edge">
<title>Node1&#45;&gt;Node10</title>
<path fill="none" stroke="midnightblue" d="M31.89,-210.42C42.77,-201.66 59.08,-188.52 71.97,-178.14"/>
<polygon fill="midnightblue" stroke="midnightblue" points="74.26,-180.78 79.85,-171.79 69.87,-175.33 74.26,-180.78"/>
</g>
<!-- Node4 -->
<g id="node4" class="node">
<title>Node4</title>
<g id="a_node4"><a target="_blank" xlink:href="http://en.cppreference.com/w/cpp/container/queue/empty.html#" xlink:title=" ">
<polygon fill="white" stroke="black" points="292.5,-310.5 292.5,-329.5 387.5,-329.5 387.5,-310.5 292.5,-310.5"/>
<text text-anchor="middle" x="340" y="-317.5" font-family="Helvetica,sans-Serif" font-size="10.00">std::queue::empty</text>
</a>
</g>
</g>
<!-- Node3&#45;&gt;Node4 -->
<g id="edge3" class="edge">
<title>Node3&#45;&gt;Node4</title>
<path fill="none" stroke="midnightblue" d="M229.64,-259.06C235.23,-262.11 240.89,-265.48 246,-269 263.63,-281.15 263.47,-290.29 282,-301 285.66,-303.11 289.58,-305.04 293.6,-306.77"/>
<polygon fill="midnightblue" stroke="midnightblue" points="292.48,-310.09 303.07,-310.49 295.04,-303.57 292.48,-310.09"/>
</g>
<!-- Node5 -->
<g id="node5" class="node">
<title>Node5</title>
<g id="a_node5"><a target="_blank" xlink:href="http://en.cppreference.com/w/cpp/container/queue/front.html#" xlink:title=" ">
<polygon fill="white" stroke="black" points="296,-272.5 296,-291.5 384,-291.5 384,-272.5 296,-272.5"/>
<text text-anchor="middle" x="340" y="-279.5" font-family="Helvetica,sans-Serif" font-size="10.00">std::queue::front</text>
</a>
</g>
</g>
<!-- Node3&#45;&gt;Node5 -->
<g id="edge4" class="edge">
<title>Node3&#45;&gt;Node5</title>
<path fill="none" stroke="midnightblue" d="M246.13,-256.97C261.57,-261.13 278.62,-265.73 293.84,-269.83"/>
<polygon fill="midnightblue" stroke="midnightblue" points="292.98,-273.22 303.55,-272.45 294.8,-266.46 292.98,-273.22"/>
</g>
<!-- Node6 -->
<g id="node6" class="node">
<title>Node6</title>
<g id="a_node6"><a target="_blank" xlink:href="http://en.cppreference.com/w/cpp/container/queue/pop.html#" xlink:title=" ">
<polygon fill="white" stroke="black" points="298,-234.5 298,-253.5 382,-253.5 382,-234.5 298,-234.5"/>
<text text-anchor="middle" x="340" y="-241.5" font-family="Helvetica,sans-Serif" font-size="10.00">std::queue::pop</text>
</a>
</g>
</g>
<!-- Node3&#45;&gt;Node6 -->
<g id="edge5" class="edge">
<title>Node3&#45;&gt;Node6</title>
<path fill="none" stroke="midnightblue" d="M246.13,-244C259.48,-244 274.02,-244 287.56,-244"/>
<polygon fill="midnightblue" stroke="midnightblue" points="287.67,-247.5 297.67,-244 287.67,-240.5 287.67,-247.5"/>
</g>
<!-- Node7 -->
<g id="node7" class="node">
<title>Node7</title>
<g id="a_node7"><a target="_blank" xlink:href="http://en.cppreference.com/w/cpp/container/queue/push.html#" xlink:title=" ">
<polygon fill="white" stroke="black" points="295.5,-196.5 295.5,-215.5 384.5,-215.5 384.5,-196.5 295.5,-196.5"/>
<text text-anchor="middle" x="340" y="-203.5" font-family="Helvetica,sans-Serif" font-size="10.00">std::queue::push</text>
</a>
</g>
</g>
<!-- Node3&#45;&gt;Node7 -->
<g id="edge6" class="edge">
<title>Node3&#45;&gt;Node7</title>
<path fill="none" stroke="midnightblue" d="M246.13,-231.03C261.57,-226.87 278.62,-222.27 293.84,-218.17"/>
<polygon fill="midnightblue" stroke="midnightblue" points="294.8,-221.54 303.55,-215.55 292.98,-214.78 294.8,-221.54"/>
</g>
<!-- Node8 -->
<g id="node8" class="node">
<title>Node8</title>
<g id="a_node8"><a target="_blank" xlink:href="http://en.cppreference.com/w/cpp/container/vector/push_back.html#" xlink:title=" ">
<polygon fill="white" stroke="black" points="282,-158.5 282,-177.5 398,-177.5 398,-158.5 282,-158.5"/>
<text text-anchor="middle" x="340" y="-165.5" font-family="Helvetica,sans-Serif" font-size="10.00">std::vector::push_back</text>
</a>
</g>
</g>
<!-- Node3&#45;&gt;Node8 -->
<g id="edge7" class="edge">
<title>Node3&#45;&gt;Node8</title>
<path fill="none" stroke="midnightblue" d="M229.64,-228.94C235.23,-225.89 240.89,-222.52 246,-219 263.63,-206.85 263.47,-197.71 282,-187 285.66,-184.89 289.58,-182.96 293.6,-181.23"/>
<polygon fill="midnightblue" stroke="midnightblue" points="295.04,-184.43 303.07,-177.51 292.48,-177.91 295.04,-184.43"/>
</g>
<!-- Node10&#45;&gt;Node2 -->
<g id="edge10" class="edge">
<title>Node10&#45;&gt;Node2</title>
<path fill="none" stroke="midnightblue" d="M96.38,-171.71C101.91,-192.4 117.58,-241.21 148,-269 149.72,-270.57 151.59,-272.02 153.55,-273.35"/>
<polygon fill="midnightblue" stroke="midnightblue" points="152.22,-276.62 162.65,-278.5 155.66,-270.53 152.22,-276.62"/>
</g>
<!-- Node10&#45;&gt;Node3 -->
<g id="edge11" class="edge">
<title>Node10&#45;&gt;Node3</title>
<path fill="none" stroke="midnightblue" d="M101.58,-171.82C111.34,-184 129.28,-204.88 148,-219 150.07,-220.56 152.25,-222.07 154.49,-223.53"/>
<polygon fill="midnightblue" stroke="midnightblue" points="152.98,-226.71 163.35,-228.88 156.59,-220.71 152.98,-226.71"/>
</g>
<!-- Node10&#45;&gt;Node9 -->
<g id="edge15" class="edge">
<title>Node10&#45;&gt;Node9</title>
<path fill="none" stroke="midnightblue" d="M112.24,-168.79C125.62,-173.78 144.22,-180.71 160.49,-186.77"/>
<polygon fill="midnightblue" stroke="midnightblue" points="159.67,-190.2 170.26,-190.41 162.11,-183.64 159.67,-190.2"/>
</g>
<!-- Node11 -->
<g id="node11" class="node">
<title>Node11</title>
<g id="a_node11"><a target="_blank" xlink:href="http://en.cppreference.com/w/cpp/container/vector/begin.html#" xlink:title=" ">
<polygon fill="white" stroke="black" points="151,-0.5 151,-19.5 243,-19.5 243,-0.5 151,-0.5"/>
<text text-anchor="middle" x="197" y="-7.5" font-family="Helvetica,sans-Serif" font-size="10.00">std::vector::begin</text>
</a>
</g>
</g>
<!-- Node10&#45;&gt;Node11 -->
<g id="edge12" class="edge">
<title>Node10&#45;&gt;Node11</title>
<path fill="none" stroke="midnightblue" d="M95.31,-152.2C99.04,-128 111.89,-64.79 148,-29 149.43,-27.58 150.98,-26.26 152.62,-25.04"/>
<polygon fill="midnightblue" stroke="midnightblue" points="154.67,-27.89 161.39,-19.7 151.03,-21.91 154.67,-27.89"/>
</g>
<!-- Node12 -->
<g id="node12" class="node">
<title>Node12</title>
<g id="a_node12"><a target="_blank" xlink:href="http://en.cppreference.com/w/cpp/container/vector/clear.html#" xlink:title=" ">
<polygon fill="white" stroke="black" points="152,-152.5 152,-171.5 242,-171.5 242,-152.5 152,-152.5"/>
<text text-anchor="middle" x="197" y="-159.5" font-family="Helvetica,sans-Serif" font-size="10.00">std::vector::clear</text>
</a>
</g>
</g>
<!-- Node10&#45;&gt;Node12 -->
<g id="edge13" class="edge">
<title>Node10&#45;&gt;Node12</title>
<path fill="none" stroke="midnightblue" d="M112.24,-162C120.57,-162 130.94,-162 141.5,-162"/>
<polygon fill="midnightblue" stroke="midnightblue" points="141.63,-165.5 151.63,-162 141.63,-158.5 141.63,-165.5"/>
</g>
<!-- Node13 -->
<g id="node13" class="node">
<title>Node13</title>
<g id="a_node13"><a target="_blank" xlink:href="http://en.cppreference.com/w/cpp/container/vector/end.html#" xlink:title=" ">
<polygon fill="white" stroke="black" points="154.5,-114.5 154.5,-133.5 239.5,-133.5 239.5,-114.5 154.5,-114.5"/>
<text text-anchor="middle" x="197" y="-121.5" font-family="Helvetica,sans-Serif" font-size="10.00">std::vector::end</text>
</a>
</g>
</g>
<!-- Node10&#45;&gt;Node13 -->
<g id="edge14" class="edge">
<title>Node10&#45;&gt;Node13</title>
<path fill="none" stroke="midnightblue" d="M112.24,-155.21C125.62,-150.22 144.22,-143.29 160.49,-137.23"/>
<polygon fill="midnightblue" stroke="midnightblue" points="162.11,-140.36 170.26,-133.59 159.67,-133.8 162.11,-140.36"/>
</g>
<!-- Node14 -->
<g id="node14" class="node">
<title>Node14</title>
<g id="a_node14"><a target="_blank" xlink:href="http://en.cppreference.com/w/cpp/algorithm/equal.html#" xlink:title=" ">
<polygon fill="white" stroke="black" points="167.5,-76.5 167.5,-95.5 226.5,-95.5 226.5,-76.5 167.5,-76.5"/>
<text text-anchor="middle" x="197" y="-83.5" font-family="Helvetica,sans-Serif" font-size="10.00">std::equal</text>
</a>
</g>
</g>
<!-- Node10&#45;&gt;Node14 -->
<g id="edge16" class="edge">
<title>Node10&#45;&gt;Node14</title>
<path fill="none" stroke="midnightblue" d="M101.02,-152.29C110.47,-139.85 128.35,-118.29 148,-105 151.12,-102.89 154.5,-100.97 157.98,-99.22"/>
<polygon fill="midnightblue" stroke="midnightblue" points="159.63,-102.31 167.3,-95 156.75,-95.93 159.63,-102.31"/>
</g>
<!-- Node15 -->
<g id="node15" class="node">
<title>Node15</title>
<g id="a_node15"><a target="_blank" xlink:href="http://en.cppreference.com/w/cpp/container/vector/resize.html#" xlink:title=" ">
<polygon fill="white" stroke="black" points="149.5,-38.5 149.5,-57.5 244.5,-57.5 244.5,-38.5 149.5,-38.5"/>
<text text-anchor="middle" x="197" y="-45.5" font-family="Helvetica,sans-Serif" font-size="10.00">std::vector::resize</text>
</a>
</g>
</g>
<!-- Node10&#45;&gt;Node15 -->
<g id="edge17" class="edge">
<title>Node10&#45;&gt;Node15</title>
<path fill="none" stroke="midnightblue" d="M97.08,-152.23C103.53,-133.25 120.22,-91.14 148,-67 149.76,-65.47 151.66,-64.06 153.64,-62.75"/>
<polygon fill="midnightblue" stroke="midnightblue" points="155.75,-65.59 162.81,-57.68 152.36,-59.46 155.75,-65.59"/>
</g>
</g>
</svg>
