<?xml version="1.0" encoding="UTF-8" standalone="no"?>
<!DOCTYPE svg PUBLIC "-//W3C//DTD SVG 1.1//EN"
 "http://www.w3.org/Graphics/SVG/1.1/DTD/svg11.dtd">
<!-- Generated by graphviz version 2.44.0 (20200408.0750)
 -->
<!-- Title: main Pages: 1 -->
<svg width="311pt" height="210pt"
 viewBox="0.00 0.00 311.00 210.00" xmlns="http://www.w3.org/2000/svg" xmlns:xlink="http://www.w3.org/1999/xlink">
<g id="graph0" class="graph" transform="scale(1 1) rotate(0) translate(4 206)">
<title>main</title>
<polygon fill="white" stroke="transparent" points="-4,4 -4,-206 307,-206 307,4 -4,4"/>
<!-- Node1 -->
<g id="node1" class="node">
<title>Node1</title>
<g id="a_node1"><a xlink:title=" ">
<polygon fill="#bfbfbf" stroke="black" points="0,-144.5 0,-163.5 38,-163.5 38,-144.5 0,-144.5"/>
<text text-anchor="middle" x="19" y="-151.5" font-family="Helvetica,sans-Serif" font-size="10.00">main</text>
</a>
</g>
</g>
<!-- Node2 -->
<g id="node2" class="node">
<title>Node2</title>
<g id="a_node2"><a xlink:href="../../dd/d9b/classgraph.html#a35c12fba596d8bb48b1877b128c4ba6d" target="_top" xlink:title="Function that add edge between two nodes or vertices of graph.">
<polygon fill="white" stroke="black" points="80.5,-182.5 80.5,-201.5 165.5,-201.5 165.5,-182.5 80.5,-182.5"/>
<text text-anchor="middle" x="123" y="-189.5" font-family="Helvetica,sans-Serif" font-size="10.00">graph::addEdge</text>
</a>
</g>
</g>
<!-- Node1&#45;&gt;Node2 -->
<g id="edge1" class="edge">
<title>Node1&#45;&gt;Node2</title>
<path fill="none" stroke="midnightblue" d="M38.24,-160.79C51.62,-165.78 70.22,-172.71 86.49,-178.77"/>
<polygon fill="midnightblue" stroke="midnightblue" points="85.67,-182.2 96.26,-182.41 88.11,-175.64 85.67,-182.2"/>
</g>
<!-- Node3 -->
<g id="node3" class="node">
<title>Node3</title>
<g id="a_node3"><a xlink:href="../../df/dce/namespacegraph.html#a4c07a74fc1144cb91202ae0e9a4640ed" target="_top" xlink:title="Function performs the breadth first search algorithm over the graph.">
<polygon fill="white" stroke="black" points="74,-87 74,-117 172,-117 172,-87 74,-87"/>
<text text-anchor="start" x="82" y="-105" font-family="Helvetica,sans-Serif" font-size="10.00">graph::beadth_first</text>
<text text-anchor="middle" x="123" y="-94" font-family="Helvetica,sans-Serif" font-size="10.00">_search</text>
</a>
</g>
</g>
<!-- Node1&#45;&gt;Node3 -->
<g id="edge2" class="edge">
<title>Node1&#45;&gt;Node3</title>
<path fill="none" stroke="midnightblue" d="M38.24,-144.7C50.67,-138.37 67.61,-129.73 83,-121.88"/>
<polygon fill="midnightblue" stroke="midnightblue" points="85.01,-124.79 92.33,-117.13 81.83,-118.55 85.01,-124.79"/>
</g>
<!-- Node5 -->
<g id="node5" class="node">
<title>Node5</title>
<g id="a_node5"><a target="_blank" xlink:href="http://en.cppreference.com/w/cpp/io/manip/endl.html#" xlink:title=" ">
<polygon fill="white" stroke="black" points="228.5,-152.5 228.5,-171.5 282.5,-171.5 282.5,-152.5 228.5,-152.5"/>
<text text-anchor="middle" x="255.5" y="-159.5" font-family="Helvetica,sans-Serif" font-size="10.00">std::endl</text>
</a>
</g>
</g>
<!-- Node1&#45;&gt;Node5 -->
<g id="edge8" class="edge">
<title>Node1&#45;&gt;Node5</title>
<path fill="none" stroke="midnightblue" d="M38.01,-154.61C76.46,-155.93 167.2,-159.02 218.16,-160.76"/>
<polygon fill="midnightblue" stroke="midnightblue" points="218.28,-164.27 228.4,-161.11 218.52,-157.27 218.28,-164.27"/>
</g>
<!-- Node4 -->
<g id="node4" class="node">
<title>Node4</title>
<g id="a_node4"><a target="_blank" xlink:href="http://en.cppreference.com/w/cpp/container/queue/empty.html#" xlink:title=" ">
<polygon fill="white" stroke="black" points="208,-114.5 208,-133.5 303,-133.5 303,-114.5 208,-114.5"/>
<text text-anchor="middle" x="255.5" y="-121.5" font-family="Helvetica,sans-Serif" font-size="10.00">std::queue::empty</text>
</a>
</g>
</g>
<!-- Node3&#45;&gt;Node4 -->
<g id="edge3" class="edge">
<title>Node3&#45;&gt;Node4</title>
<path fill="none" stroke="midnightblue" d="M172.22,-110.13C180.57,-111.54 189.32,-113.01 197.87,-114.45"/>
<polygon fill="midnightblue" stroke="midnightblue" points="197.34,-117.91 207.78,-116.12 198.5,-111.01 197.34,-117.91"/>
</g>
<!-- Node3&#45;&gt;Node5 -->
<g id="edge4" class="edge">
<title>Node3&#45;&gt;Node5</title>
<path fill="none" stroke="midnightblue" d="M153.71,-117.1C169.68,-125.06 189.78,-134.84 208,-143 212.14,-144.85 216.52,-146.74 220.87,-148.57"/>
<polygon fill="midnightblue" stroke="midnightblue" points="219.66,-151.85 230.24,-152.44 222.33,-145.38 219.66,-151.85"/>
</g>
<!-- Node6 -->
<g id="node6" class="node">
<title>Node6</title>
<g id="a_node6"><a target="_blank" xlink:href="http://en.cppreference.com/w/cpp/container/queue/front.html#" xlink:title=" ">
<polygon fill="white" stroke="black" points="211.5,-76.5 211.5,-95.5 299.5,-95.5 299.5,-76.5 211.5,-76.5"/>
<text text-anchor="middle" x="255.5" y="-83.5" font-family="Helvetica,sans-Serif" font-size="10.00">std::queue::front</text>
</a>
</g>
</g>
<!-- Node3&#45;&gt;Node6 -->
<g id="edge5" class="edge">
<title>Node3&#45;&gt;Node6</title>
<path fill="none" stroke="midnightblue" d="M172.22,-96.09C181.61,-94.94 191.5,-93.72 201.04,-92.55"/>
<polygon fill="midnightblue" stroke="midnightblue" points="201.72,-96 211.22,-91.31 200.86,-89.05 201.72,-96"/>
</g>
<!-- Node7 -->
<g id="node7" class="node">
<title>Node7</title>
<g id="a_node7"><a target="_blank" xlink:href="http://en.cppreference.com/w/cpp/container/queue/pop.html#" xlink:title=" ">
<polygon fill="white" stroke="black" points="213.5,-38.5 213.5,-57.5 297.5,-57.5 297.5,-38.5 213.5,-38.5"/>
<text text-anchor="middle" x="255.5" y="-45.5" font-family="Helvetica,sans-Serif" font-size="10.00">std::queue::pop</text>
</a>
</g>
</g>
<!-- Node3&#45;&gt;Node7 -->
<g id="edge6" class="edge">
<title>Node3&#45;&gt;Node7</title>
<path fill="none" stroke="midnightblue" d="M159.95,-86.96C174.81,-80.75 192.23,-73.51 208,-67 212.29,-65.23 216.8,-63.38 221.26,-61.55"/>
<polygon fill="midnightblue" stroke="midnightblue" points="222.9,-64.66 230.83,-57.63 220.25,-58.18 222.9,-64.66"/>
</g>
<!-- Node8 -->
<g id="node8" class="node">
<title>Node8</title>
<g id="a_node8"><a target="_blank" xlink:href="http://en.cppreference.com/w/cpp/container/queue/push.html#" xlink:title=" ">
<polygon fill="white" stroke="black" points="211,-0.5 211,-19.5 300,-19.5 300,-0.5 211,-0.5"/>
<text text-anchor="middle" x="255.5" y="-7.5" font-family="Helvetica,sans-Serif" font-size="10.00">std::queue::push</text>
</a>
</g>
</g>
<!-- Node3&#45;&gt;Node8 -->
<g id="edge7" class="edge">
<title>Node3&#45;&gt;Node8</title>
<path fill="none" stroke="midnightblue" d="M138.29,-86.93C154.13,-70.9 181.01,-45.61 208,-29 210.99,-27.16 214.18,-25.43 217.45,-23.82"/>
<polygon fill="midnightblue" stroke="midnightblue" points="219.06,-26.93 226.72,-19.61 216.17,-20.56 219.06,-26.93"/>
</g>
</g>
</svg>
