<?xml version="1.0" encoding="UTF-8" standalone="no"?>
<!DOCTYPE svg PUBLIC "-//W3C//DTD SVG 1.1//EN"
 "http://www.w3.org/Graphics/SVG/1.1/DTD/svg11.dtd">
<!-- Generated by graphviz version 2.44.0 (20200408.0750)
 -->
<!-- Title: main Pages: 1 -->
<svg width="288pt" height="116pt"
 viewBox="0.00 0.00 288.00 116.00" xmlns="http://www.w3.org/2000/svg" xmlns:xlink="http://www.w3.org/1999/xlink">
<g id="graph0" class="graph" transform="scale(1 1) rotate(0) translate(4 112)">
<title>main</title>
<polygon fill="white" stroke="transparent" points="-4,4 -4,-112 284,-112 284,4 -4,4"/>
<!-- Node1 -->
<g id="node1" class="node">
<title>Node1</title>
<g id="a_node1"><a xlink:title=" ">
<polygon fill="#bfbfbf" stroke="black" points="0,-44.5 0,-63.5 38,-63.5 38,-44.5 0,-44.5"/>
<text text-anchor="middle" x="19" y="-51.5" font-family="Helvetica,sans-Serif" font-size="10.00">main</text>
</a>
</g>
</g>
<!-- Node2 -->
<g id="node2" class="node">
<title>Node2</title>
<g id="a_node2"><a xlink:href="../../dd/d9b/classgraph.html#a35c12fba596d8bb48b1877b128c4ba6d" target="_top" xlink:title="Function that add edge between two nodes or vertices of graph.">
<polygon fill="white" stroke="black" points="77.5,-88.5 77.5,-107.5 162.5,-107.5 162.5,-88.5 77.5,-88.5"/>
<text text-anchor="middle" x="120" y="-95.5" font-family="Helvetica,sans-Serif" font-size="10.00">graph::addEdge</text>
</a>
</g>
</g>
<!-- Node1&#45;&gt;Node2 -->
<g id="edge1" class="edge">
<title>Node1&#45;&gt;Node2</title>
<path fill="none" stroke="midnightblue" d="M38.42,-62.72C48.83,-67.59 62.1,-73.73 74,-79 78.12,-80.82 82.48,-82.71 86.79,-84.56"/>
<polygon fill="midnightblue" stroke="midnightblue" points="85.47,-87.8 96.04,-88.48 88.2,-81.36 85.47,-87.8"/>
</g>
<!-- Node3 -->
<g id="node3" class="node">
<title>Node3</title>
<g id="a_node3"><a xlink:href="../../dd/d9b/classgraph.html#a135921a59082b669678b029b301b8a1c" target="_top" xlink:title="Function that perfoms depth first search algorithm on graph.">
<polygon fill="white" stroke="black" points="74,-39 74,-69 166,-69 166,-39 74,-39"/>
<text text-anchor="start" x="82" y="-57" font-family="Helvetica,sans-Serif" font-size="10.00">graph::depth_first</text>
<text text-anchor="middle" x="120" y="-46" font-family="Helvetica,sans-Serif" font-size="10.00">_search</text>
</a>
</g>
</g>
<!-- Node1&#45;&gt;Node3 -->
<g id="edge2" class="edge">
<title>Node1&#45;&gt;Node3</title>
<path fill="none" stroke="midnightblue" d="M38.16,-54C45.54,-54 54.49,-54 63.72,-54"/>
<polygon fill="midnightblue" stroke="midnightblue" points="63.78,-57.5 73.78,-54 63.78,-50.5 63.78,-57.5"/>
</g>
<!-- Node5 -->
<g id="node5" class="node">
<title>Node5</title>
<g id="a_node5"><a target="_blank" xlink:href="http://en.cppreference.com/w/cpp/io/manip/endl.html#" xlink:title=" ">
<polygon fill="white" stroke="black" points="93,-0.5 93,-19.5 147,-19.5 147,-0.5 93,-0.5"/>
<text text-anchor="middle" x="120" y="-7.5" font-family="Helvetica,sans-Serif" font-size="10.00">std::endl</text>
</a>
</g>
</g>
<!-- Node1&#45;&gt;Node5 -->
<g id="edge4" class="edge">
<title>Node1&#45;&gt;Node5</title>
<path fill="none" stroke="midnightblue" d="M38.16,-45.93C52.16,-39.71 71.84,-30.96 88.27,-23.66"/>
<polygon fill="midnightblue" stroke="midnightblue" points="89.79,-26.81 97.51,-19.55 86.95,-20.41 89.79,-26.81"/>
</g>
<!-- Node4 -->
<g id="node4" class="node">
<title>Node4</title>
<g id="a_node4"><a xlink:href="../../dd/d9b/classgraph.html#a6398e513b9574e029fbee07c6ac6e028" target="_top" xlink:title="Utility function for depth first seach algorithm this function explores the vertex which is passed in...">
<polygon fill="white" stroke="black" points="202,-44.5 202,-63.5 280,-63.5 280,-44.5 202,-44.5"/>
<text text-anchor="middle" x="241" y="-51.5" font-family="Helvetica,sans-Serif" font-size="10.00">graph::explore</text>
</a>
</g>
</g>
<!-- Node3&#45;&gt;Node4 -->
<g id="edge3" class="edge">
<title>Node3&#45;&gt;Node4</title>
<path fill="none" stroke="midnightblue" d="M166.33,-54C174.64,-54 183.34,-54 191.74,-54"/>
<polygon fill="midnightblue" stroke="midnightblue" points="191.78,-57.5 201.78,-54 191.78,-50.5 191.78,-57.5"/>
</g>
</g>
</svg>
