<?xml version="1.0" encoding="UTF-8" standalone="no"?>
<!DOCTYPE svg PUBLIC "-//W3C//DTD SVG 1.1//EN"
 "http://www.w3.org/Graphics/SVG/1.1/DTD/svg11.dtd">
<!-- Generated by graphviz version 2.44.1 (20200629.0846)
 -->
<!-- Title: main Pages: 1 -->
<svg width="288pt" height="116pt"
 viewBox="0.00 0.00 288.00 116.00" xmlns="http://www.w3.org/2000/svg" xmlns:xlink="http://www.w3.org/1999/xlink">
<g id="graph0" class="graph" transform="scale(1 1) rotate(0) translate(4 112)">
<title>main</title>
<polygon fill="white" stroke="transparent" points="-4,4 -4,-112 284,-112 284,4 -4,4"/>
<!-- Node1 -->
<g id="node1" class="node">
<title>Node1</title>
<g id="a_node1"><a xlink:title=" ">
<polygon fill="#bfbfbf" stroke="black" points="0,-44.5 0,-63.5 38,-63.5 38,-44.5 0,-44.5"/>
<text text-anchor="middle" x="19" y="-51.5" font-family="Helvetica,sans-Serif" font-size="10.00">main</text>
</a>
</g>
</g>
<!-- Node2 -->
<g id="node2" class="node">
<title>Node2</title>
<g id="a_node2"><a xlink:href="../../df/dce/namespacegraph.html#a372ff051a7bc6c91d34a7b58edf8dfce" target="_top" xlink:title="Function that add edge between two nodes or vertices of graph.">
<polygon fill="white" stroke="black" points="77.5,-88.5 77.5,-107.5 162.5,-107.5 162.5,-88.5 77.5,-88.5"/>
<text text-anchor="middle" x="120" y="-95.5" font-family="Helvetica,sans-Serif" font-size="10.00">graph::addEdge</text>
</a>
</g>
</g>
<!-- Node1&#45;&gt;Node2 -->
<g id="edge1" class="edge">
<title>Node1&#45;&gt;Node2</title>
<path fill="none" stroke="midnightblue" d="M38.42,-62.72C48.83,-67.59 62.1,-73.73 74,-79 78.12,-80.82 82.48,-82.71 86.79,-84.56"/>
<polygon fill="midnightblue" stroke="midnightblue" points="85.47,-87.8 96.04,-88.48 88.2,-81.36 85.47,-87.8"/>
</g>
<!-- Node3 -->
<g id="node3" class="node">
<title>Node3</title>
<g id="a_node3"><a xlink:href="../../df/dce/namespacegraph.html#a2e6017a54d445819ede9adcf33240e1a" target="_top" xlink:title="initiates depth first search algorithm.">
<polygon fill="white" stroke="black" points="74,-39 74,-69 166,-69 166,-39 74,-39"/>
<text text-anchor="start" x="82" y="-57" font-family="Helvetica,sans-Serif" font-size="10.00">graph::depth_first</text>
<text text-anchor="middle" x="120" y="-46" font-family="Helvetica,sans-Serif" font-size="10.00">_search</text>
</a>
</g>
</g>
<!-- Node1&#45;&gt;Node3 -->
<g id="edge2" class="edge">
<title>Node1&#45;&gt;Node3</title>
<path fill="none" stroke="midnightblue" d="M38.16,-54C45.54,-54 54.49,-54 63.72,-54"/>
<polygon fill="midnightblue" stroke="midnightblue" points="63.78,-57.5 73.78,-54 63.78,-50.5 63.78,-57.5"/>
</g>
<!-- Node6 -->
<g id="node6" class="node">
<title>Node6</title>
<g id="a_node6"><a target="_blank" xlink:href="http://en.cppreference.com/w/cpp/io/manip/endl.html#" target="_top" xlink:title=" ">
<polygon fill="white" stroke="black" points="93,-0.5 93,-19.5 147,-19.5 147,-0.5 93,-0.5"/>
<text text-anchor="middle" x="120" y="-7.5" font-family="Helvetica,sans-Serif" font-size="10.00">std::endl</text>
</a>
</g>
</g>
<!-- Node1&#45;&gt;Node6 -->
<g id="edge5" class="edge">
<title>Node1&#45;&gt;Node6</title>
<path fill="none" stroke="midnightblue" d="M38.42,-45.28C48.83,-40.41 62.1,-34.27 74,-29 78.12,-27.18 82.48,-25.29 86.79,-23.44"/>
<polygon fill="midnightblue" stroke="midnightblue" points="88.2,-26.64 96.04,-19.52 85.47,-20.2 88.2,-26.64"/>
</g>
<!-- Node4 -->
<g id="node4" class="node">
<title>Node4</title>
<g id="a_node4"><a xlink:href="../../df/dce/namespacegraph.html#a8e9885e0dd49fcf8262a9868124deac9" target="_top" xlink:title="Utility function for depth first seach algorithm this function explores the vertex which is passed in...">
<polygon fill="white" stroke="black" points="202,-63.5 202,-82.5 280,-82.5 280,-63.5 202,-63.5"/>
<text text-anchor="middle" x="241" y="-70.5" font-family="Helvetica,sans-Serif" font-size="10.00">graph::explore</text>
</a>
</g>
</g>
<!-- Node3&#45;&gt;Node4 -->
<g id="edge3" class="edge">
<title>Node3&#45;&gt;Node4</title>
<path fill="none" stroke="midnightblue" d="M166.33,-61.24C174.64,-62.56 183.34,-63.95 191.74,-65.29"/>
<polygon fill="midnightblue" stroke="midnightblue" points="191.35,-68.78 201.78,-66.9 192.45,-61.86 191.35,-68.78"/>
</g>
<!-- Node5 -->
<g id="node5" class="node">
<title>Node5</title>
<g id="a_node5"><a target="_blank" xlink:href="http://en.cppreference.com/w/cpp/container/list/size.html#" target="_top" xlink:title=" ">
<polygon fill="white" stroke="black" points="204.5,-25.5 204.5,-44.5 277.5,-44.5 277.5,-25.5 204.5,-25.5"/>
<text text-anchor="middle" x="241" y="-32.5" font-family="Helvetica,sans-Serif" font-size="10.00">std::list::size</text>
</a>
</g>
</g>
<!-- Node3&#45;&gt;Node5 -->
<g id="edge4" class="edge">
<title>Node3&#45;&gt;Node5</title>
<path fill="none" stroke="midnightblue" d="M166.33,-46.76C175.49,-45.3 185.13,-43.76 194.3,-42.3"/>
<polygon fill="midnightblue" stroke="midnightblue" points="195.09,-45.71 204.42,-40.68 193.99,-38.8 195.09,-45.71"/>
</g>
</g>
</svg>
