<?xml version="1.0" encoding="UTF-8" standalone="no"?>
<!DOCTYPE svg PUBLIC "-//W3C//DTD SVG 1.1//EN"
 "http://www.w3.org/Graphics/SVG/1.1/DTD/svg11.dtd">
<!-- Generated by graphviz version 2.44.0 (20200408.0750)
 -->
<!-- Title: MinHeap::deleteKey Pages: 1 -->
<svg width="393pt" height="85pt"
 viewBox="0.00 0.00 393.00 85.00" xmlns="http://www.w3.org/2000/svg" xmlns:xlink="http://www.w3.org/1999/xlink">
<g id="graph0" class="graph" transform="scale(1 1) rotate(0) translate(4 81)">
<title>MinHeap::deleteKey</title>
<polygon fill="white" stroke="transparent" points="-4,4 -4,-81 389,-81 389,4 -4,4"/>
<!-- Node1 -->
<g id="node1" class="node">
<title>Node1</title>
<g id="a_node1"><a xlink:title=" ">
<polygon fill="#bfbfbf" stroke="black" points="0,-19.5 0,-38.5 105,-38.5 105,-19.5 0,-19.5"/>
<text text-anchor="middle" x="52.5" y="-26.5" font-family="Helvetica,sans-Serif" font-size="10.00">MinHeap::deleteKey</text>
</a>
</g>
</g>
<!-- Node2 -->
<g id="node2" class="node">
<title>Node2</title>
<g id="a_node2"><a xlink:href="../../d2/d05/class_min_heap.html#aa7f726cc6327955d22871592227432f5" target="_top" xlink:title=" ">
<polygon fill="white" stroke="black" points="141,-38.5 141,-57.5 260,-57.5 260,-38.5 141,-38.5"/>
<text text-anchor="middle" x="200.5" y="-45.5" font-family="Helvetica,sans-Serif" font-size="10.00">MinHeap::decreaseKey</text>
</a>
</g>
</g>
<!-- Node1&#45;&gt;Node2 -->
<g id="edge1" class="edge">
<title>Node1&#45;&gt;Node2</title>
<path fill="none" stroke="midnightblue" d="M105.39,-35.75C113.63,-36.83 122.27,-37.95 130.83,-39.06"/>
<polygon fill="midnightblue" stroke="midnightblue" points="130.45,-42.54 140.82,-40.36 131.35,-35.6 130.45,-42.54"/>
</g>
<!-- Node5 -->
<g id="node5" class="node">
<title>Node5</title>
<g id="a_node5"><a xlink:href="../../d2/d05/class_min_heap.html#a4014f1edaed0bd7db0c0d2ca53228980" target="_top" xlink:title=" ">
<polygon fill="white" stroke="black" points="147,-0.5 147,-19.5 254,-19.5 254,-0.5 147,-0.5"/>
<text text-anchor="middle" x="200.5" y="-7.5" font-family="Helvetica,sans-Serif" font-size="10.00">MinHeap::extractMin</text>
</a>
</g>
</g>
<!-- Node1&#45;&gt;Node5 -->
<g id="edge4" class="edge">
<title>Node1&#45;&gt;Node5</title>
<path fill="none" stroke="midnightblue" d="M105.39,-22.25C115.57,-20.92 126.36,-19.52 136.85,-18.15"/>
<polygon fill="midnightblue" stroke="midnightblue" points="137.33,-21.62 146.8,-16.86 136.43,-14.68 137.33,-21.62"/>
</g>
<!-- Node3 -->
<g id="node3" class="node">
<title>Node3</title>
<g id="a_node3"><a xlink:href="../../d2/d05/class_min_heap.html#a0e893f9deb4be4cf4f9990e736483e81" target="_top" xlink:title=" ">
<polygon fill="white" stroke="black" points="296,-57.5 296,-76.5 385,-76.5 385,-57.5 296,-57.5"/>
<text text-anchor="middle" x="340.5" y="-64.5" font-family="Helvetica,sans-Serif" font-size="10.00">MinHeap::parent</text>
</a>
</g>
</g>
<!-- Node2&#45;&gt;Node3 -->
<g id="edge2" class="edge">
<title>Node2&#45;&gt;Node3</title>
<path fill="none" stroke="midnightblue" d="M260.02,-56.06C268.59,-57.24 277.38,-58.45 285.84,-59.61"/>
<polygon fill="midnightblue" stroke="midnightblue" points="285.58,-63.11 295.96,-61.01 286.53,-56.17 285.58,-63.11"/>
</g>
<!-- Node4 -->
<g id="node4" class="node">
<title>Node4</title>
<g id="a_node4"><a target="_blank" xlink:href="http://en.cppreference.com/w/cpp/algorithm/swap.html#" xlink:title=" ">
<polygon fill="white" stroke="black" points="311,-19.5 311,-38.5 370,-38.5 370,-19.5 311,-19.5"/>
<text text-anchor="middle" x="340.5" y="-26.5" font-family="Helvetica,sans-Serif" font-size="10.00">std::swap</text>
</a>
</g>
</g>
<!-- Node2&#45;&gt;Node4 -->
<g id="edge3" class="edge">
<title>Node2&#45;&gt;Node4</title>
<path fill="none" stroke="midnightblue" d="M260.02,-39.94C273.8,-38.05 288.14,-36.07 300.79,-34.33"/>
<polygon fill="midnightblue" stroke="midnightblue" points="301.54,-37.76 310.97,-32.93 300.59,-30.82 301.54,-37.76"/>
</g>
</g>
</svg>
