<?xml version="1.0" encoding="UTF-8" standalone="no"?>
<!DOCTYPE svg PUBLIC "-//W3C//DTD SVG 1.1//EN"
 "http://www.w3.org/Graphics/SVG/1.1/DTD/svg11.dtd">
<!-- Generated by graphviz version 2.44.1 (20200629.0846)
 -->
<!-- Title: graph::Graph&lt; T &gt; Pages: 1 -->
<svg width="128pt" height="173pt"
 viewBox="0.00 0.00 127.50 173.00" xmlns="http://www.w3.org/2000/svg" xmlns:xlink="http://www.w3.org/1999/xlink">
<g id="graph0" class="graph" transform="scale(1 1) rotate(0) translate(4 169)">
<title>graph::Graph&lt; T &gt;</title>
<polygon fill="white" stroke="transparent" points="-4,4 -4,-169 123.5,-169 123.5,4 -4,4"/>
<!-- Node1 -->
<g id="node1" class="node">
<title>Node1</title>
<g id="a_node1"><a xlink:title=" ">
<polygon fill="#bfbfbf" stroke="black" points="5,-0.5 5,-19.5 102,-19.5 102,-0.5 5,-0.5"/>
<text text-anchor="middle" x="53.5" y="-7.5" font-family="Helvetica,sans-Serif" font-size="10.00">graph::Graph&lt; T &gt;</text>
</a>
</g>
</g>
<!-- Node2 -->
<g id="node2" class="node">
<title>Node2</title>
<g id="a_node2"><a target="_blank" xlink:href="http://en.cppreference.com/w/cpp/container/map.html" target="_top" xlink:title=" ">
<polygon fill="white" stroke="black" points="0,-67.5 0,-97.5 107,-97.5 107,-67.5 0,-67.5"/>
<text text-anchor="start" x="8" y="-85.5" font-family="Helvetica,sans-Serif" font-size="10.00">std::map&lt; T, std::list</text>
<text text-anchor="middle" x="53.5" y="-74.5" font-family="Helvetica,sans-Serif" font-size="10.00">&lt; T &gt; &gt;</text>
</a>
</g>
</g>
<!-- Node2&#45;&gt;Node1 -->
<g id="edge1" class="edge">
<title>Node2&#45;&gt;Node1</title>
<path fill="none" stroke="#9a32cd" stroke-dasharray="5,2" d="M53.5,-57.09C53.5,-44.21 53.5,-29.2 53.5,-19.89"/>
<polygon fill="#9a32cd" stroke="#9a32cd" points="50,-57.23 53.5,-67.23 57,-57.23 50,-57.23"/>
<text text-anchor="middle" x="86.5" y="-41" font-family="Helvetica,sans-Serif" font-size="10.00"> adjacency_list</text>
</g>
<!-- Node3 -->
<g id="node3" class="node">
<title>Node3</title>
<g id="a_node3"><a xlink:title=" ">
<polygon fill="white" stroke="#bfbfbf" points="39,-145.5 39,-164.5 68,-164.5 68,-145.5 39,-145.5"/>
<text text-anchor="middle" x="53.5" y="-152.5" font-family="Helvetica,sans-Serif" font-size="10.00">T</text>
</a>
</g>
</g>
<!-- Node3&#45;&gt;Node2 -->
<g id="edge2" class="edge">
<title>Node3&#45;&gt;Node2</title>
<path fill="none" stroke="#9a32cd" stroke-dasharray="5,2" d="M53.5,-135.24C53.5,-123.41 53.5,-108.38 53.5,-97.58"/>
<polygon fill="#9a32cd" stroke="#9a32cd" points="50,-135.36 53.5,-145.36 57,-135.36 50,-135.36"/>
<text text-anchor="middle" x="66" y="-119" font-family="Helvetica,sans-Serif" font-size="10.00"> keys</text>
</g>
</g>
</svg>
