<?xml version="1.0" encoding="UTF-8" standalone="no"?>
<!DOCTYPE svg PUBLIC "-//W3C//DTD SVG 1.1//EN"
 "http://www.w3.org/Graphics/SVG/1.1/DTD/svg11.dtd">
<!-- Generated by graphviz version 2.44.0 (20200408.0750)
 -->
<!-- Title: graph::beadth_first_search Pages: 1 -->
<svg width="258pt" height="180pt"
 viewBox="0.00 0.00 258.00 180.00" xmlns="http://www.w3.org/2000/svg" xmlns:xlink="http://www.w3.org/1999/xlink">
<g id="graph0" class="graph" transform="scale(1 1) rotate(0) translate(4 176)">
<title>graph::beadth_first_search</title>
<polygon fill="white" stroke="transparent" points="-4,4 -4,-176 254,-176 254,4 -4,4"/>
<!-- Node1 -->
<g id="node1" class="node">
<title>Node1</title>
<g id="a_node1"><a xlink:title="Function performs the breadth first search algorithm over the graph.">
<polygon fill="#bfbfbf" stroke="black" points="0,-71 0,-101 98,-101 98,-71 0,-71"/>
<text text-anchor="start" x="8" y="-89" font-family="Helvetica,sans-Serif" font-size="10.00">graph::beadth_first</text>
<text text-anchor="middle" x="49" y="-78" font-family="Helvetica,sans-Serif" font-size="10.00">_search</text>
</a>
</g>
</g>
<!-- Node2 -->
<g id="node2" class="node">
<title>Node2</title>
<g id="a_node2"><a target="_blank" xlink:href="http://en.cppreference.com/w/cpp/container/queue/empty.html#" xlink:title=" ">
<polygon fill="white" stroke="black" points="144.5,-152.5 144.5,-171.5 239.5,-171.5 239.5,-152.5 144.5,-152.5"/>
<text text-anchor="middle" x="192" y="-159.5" font-family="Helvetica,sans-Serif" font-size="10.00">std::queue::empty</text>
</a>
</g>
</g>
<!-- Node1&#45;&gt;Node2 -->
<g id="edge1" class="edge">
<title>Node1&#45;&gt;Node2</title>
<path fill="none" stroke="midnightblue" d="M69.09,-101.2C85.53,-113.73 110.3,-131.29 134,-143 138.33,-145.14 142.96,-147.13 147.64,-148.95"/>
<polygon fill="midnightblue" stroke="midnightblue" points="146.64,-152.31 157.23,-152.44 149.03,-145.73 146.64,-152.31"/>
</g>
<!-- Node3 -->
<g id="node3" class="node">
<title>Node3</title>
<g id="a_node3"><a target="_blank" xlink:href="http://en.cppreference.com/w/cpp/container/queue/front.html#" xlink:title=" ">
<polygon fill="white" stroke="black" points="148,-114.5 148,-133.5 236,-133.5 236,-114.5 148,-114.5"/>
<text text-anchor="middle" x="192" y="-121.5" font-family="Helvetica,sans-Serif" font-size="10.00">std::queue::front</text>
</a>
</g>
</g>
<!-- Node1&#45;&gt;Node3 -->
<g id="edge2" class="edge">
<title>Node1&#45;&gt;Node3</title>
<path fill="none" stroke="midnightblue" d="M98.13,-98.97C113.57,-103.13 130.62,-107.73 145.84,-111.83"/>
<polygon fill="midnightblue" stroke="midnightblue" points="144.98,-115.22 155.55,-114.45 146.8,-108.46 144.98,-115.22"/>
</g>
<!-- Node4 -->
<g id="node4" class="node">
<title>Node4</title>
<g id="a_node4"><a target="_blank" xlink:href="http://en.cppreference.com/w/cpp/container/queue/pop.html#" xlink:title=" ">
<polygon fill="white" stroke="black" points="150,-76.5 150,-95.5 234,-95.5 234,-76.5 150,-76.5"/>
<text text-anchor="middle" x="192" y="-83.5" font-family="Helvetica,sans-Serif" font-size="10.00">std::queue::pop</text>
</a>
</g>
</g>
<!-- Node1&#45;&gt;Node4 -->
<g id="edge3" class="edge">
<title>Node1&#45;&gt;Node4</title>
<path fill="none" stroke="midnightblue" d="M98.13,-86C111.48,-86 126.02,-86 139.56,-86"/>
<polygon fill="midnightblue" stroke="midnightblue" points="139.67,-89.5 149.67,-86 139.67,-82.5 139.67,-89.5"/>
</g>
<!-- Node5 -->
<g id="node5" class="node">
<title>Node5</title>
<g id="a_node5"><a target="_blank" xlink:href="http://en.cppreference.com/w/cpp/container/queue/push.html#" xlink:title=" ">
<polygon fill="white" stroke="black" points="147.5,-38.5 147.5,-57.5 236.5,-57.5 236.5,-38.5 147.5,-38.5"/>
<text text-anchor="middle" x="192" y="-45.5" font-family="Helvetica,sans-Serif" font-size="10.00">std::queue::push</text>
</a>
</g>
</g>
<!-- Node1&#45;&gt;Node5 -->
<g id="edge4" class="edge">
<title>Node1&#45;&gt;Node5</title>
<path fill="none" stroke="midnightblue" d="M98.13,-73.03C113.57,-68.87 130.62,-64.27 145.84,-60.17"/>
<polygon fill="midnightblue" stroke="midnightblue" points="146.8,-63.54 155.55,-57.55 144.98,-56.78 146.8,-63.54"/>
</g>
<!-- Node6 -->
<g id="node6" class="node">
<title>Node6</title>
<g id="a_node6"><a target="_blank" xlink:href="http://en.cppreference.com/w/cpp/container/vector/push_back.html#" xlink:title=" ">
<polygon fill="white" stroke="black" points="134,-0.5 134,-19.5 250,-19.5 250,-0.5 134,-0.5"/>
<text text-anchor="middle" x="192" y="-7.5" font-family="Helvetica,sans-Serif" font-size="10.00">std::vector::push_back</text>
</a>
</g>
</g>
<!-- Node1&#45;&gt;Node6 -->
<g id="edge5" class="edge">
<title>Node1&#45;&gt;Node6</title>
<path fill="none" stroke="midnightblue" d="M69.09,-70.8C85.53,-58.27 110.3,-40.71 134,-29 138.33,-26.86 142.96,-24.87 147.64,-23.05"/>
<polygon fill="midnightblue" stroke="midnightblue" points="149.03,-26.27 157.23,-19.56 146.64,-19.69 149.03,-26.27"/>
</g>
</g>
</svg>
