<?xml version="1.0" encoding="UTF-8" standalone="no"?>
<!DOCTYPE svg PUBLIC "-//W3C//DTD SVG 1.1//EN"
 "http://www.w3.org/Graphics/SVG/1.1/DTD/svg11.dtd">
<!-- Generated by graphviz version 2.44.0 (20200408.0750)
 -->
<!-- Title: graph::beadth_first_search Pages: 1 -->
<svg width="237pt" height="142pt"
 viewBox="0.00 0.00 237.00 142.00" xmlns="http://www.w3.org/2000/svg" xmlns:xlink="http://www.w3.org/1999/xlink">
<g id="graph0" class="graph" transform="scale(1 1) rotate(0) translate(4 138)">
<title>graph::beadth_first_search</title>
<polygon fill="white" stroke="transparent" points="-4,4 -4,-138 233,-138 233,4 -4,4"/>
<!-- Node1 -->
<g id="node1" class="node">
<title>Node1</title>
<g id="a_node1"><a xlink:title="Function performs the breadth first search algorithm over the graph.">
<polygon fill="#bfbfbf" stroke="black" points="0,-52 0,-82 98,-82 98,-52 0,-52"/>
<text text-anchor="start" x="8" y="-70" font-family="Helvetica,sans-Serif" font-size="10.00">graph::beadth_first</text>
<text text-anchor="middle" x="49" y="-59" font-family="Helvetica,sans-Serif" font-size="10.00">_search</text>
</a>
</g>
</g>
<!-- Node2 -->
<g id="node2" class="node">
<title>Node2</title>
<g id="a_node2"><a target="_blank" xlink:href="http://en.cppreference.com/w/cpp/container/queue/empty.html#" xlink:title=" ">
<polygon fill="white" stroke="black" points="134,-114.5 134,-133.5 229,-133.5 229,-114.5 134,-114.5"/>
<text text-anchor="middle" x="181.5" y="-121.5" font-family="Helvetica,sans-Serif" font-size="10.00">std::queue::empty</text>
</a>
</g>
</g>
<!-- Node1&#45;&gt;Node2 -->
<g id="edge1" class="edge">
<title>Node1&#45;&gt;Node2</title>
<path fill="none" stroke="midnightblue" d="M82.59,-82.08C98.1,-89.17 116.94,-97.66 134,-105 138.17,-106.79 142.56,-108.64 146.92,-110.45"/>
<polygon fill="midnightblue" stroke="midnightblue" points="145.72,-113.74 156.29,-114.31 148.38,-107.27 145.72,-113.74"/>
</g>
<!-- Node3 -->
<g id="node3" class="node">
<title>Node3</title>
<g id="a_node3"><a target="_blank" xlink:href="http://en.cppreference.com/w/cpp/container/queue/front.html#" xlink:title=" ">
<polygon fill="white" stroke="black" points="137.5,-76.5 137.5,-95.5 225.5,-95.5 225.5,-76.5 137.5,-76.5"/>
<text text-anchor="middle" x="181.5" y="-83.5" font-family="Helvetica,sans-Serif" font-size="10.00">std::queue::front</text>
</a>
</g>
</g>
<!-- Node1&#45;&gt;Node3 -->
<g id="edge2" class="edge">
<title>Node1&#45;&gt;Node3</title>
<path fill="none" stroke="midnightblue" d="M98.22,-74.02C107.61,-75.39 117.5,-76.83 127.04,-78.22"/>
<polygon fill="midnightblue" stroke="midnightblue" points="126.82,-81.72 137.22,-79.7 127.82,-74.79 126.82,-81.72"/>
</g>
<!-- Node4 -->
<g id="node4" class="node">
<title>Node4</title>
<g id="a_node4"><a target="_blank" xlink:href="http://en.cppreference.com/w/cpp/container/queue/pop.html#" xlink:title=" ">
<polygon fill="white" stroke="black" points="139.5,-38.5 139.5,-57.5 223.5,-57.5 223.5,-38.5 139.5,-38.5"/>
<text text-anchor="middle" x="181.5" y="-45.5" font-family="Helvetica,sans-Serif" font-size="10.00">std::queue::pop</text>
</a>
</g>
</g>
<!-- Node1&#45;&gt;Node4 -->
<g id="edge3" class="edge">
<title>Node1&#45;&gt;Node4</title>
<path fill="none" stroke="midnightblue" d="M98.22,-59.98C108.35,-58.5 119.07,-56.94 129.3,-55.45"/>
<polygon fill="midnightblue" stroke="midnightblue" points="129.94,-58.9 139.33,-53.99 128.93,-51.97 129.94,-58.9"/>
</g>
<!-- Node5 -->
<g id="node5" class="node">
<title>Node5</title>
<g id="a_node5"><a target="_blank" xlink:href="http://en.cppreference.com/w/cpp/container/queue/push.html#" xlink:title=" ">
<polygon fill="white" stroke="black" points="137,-0.5 137,-19.5 226,-19.5 226,-0.5 137,-0.5"/>
<text text-anchor="middle" x="181.5" y="-7.5" font-family="Helvetica,sans-Serif" font-size="10.00">std::queue::push</text>
</a>
</g>
</g>
<!-- Node1&#45;&gt;Node5 -->
<g id="edge4" class="edge">
<title>Node1&#45;&gt;Node5</title>
<path fill="none" stroke="midnightblue" d="M82.59,-51.92C98.1,-44.83 116.94,-36.34 134,-29 138.17,-27.21 142.56,-25.36 146.92,-23.55"/>
<polygon fill="midnightblue" stroke="midnightblue" points="148.38,-26.73 156.29,-19.69 145.72,-20.26 148.38,-26.73"/>
</g>
</g>
</svg>
