<?xml version="1.0" encoding="UTF-8" standalone="no"?>
<!DOCTYPE svg PUBLIC "-//W3C//DTD SVG 1.1//EN"
 "http://www.w3.org/Graphics/SVG/1.1/DTD/svg11.dtd">
<!-- Generated by graphviz version 2.44.0 (20200408.0750)
 -->
<!-- Title: main Pages: 1 -->
<svg width="320pt" height="85pt"
 viewBox="0.00 0.00 320.00 85.00" xmlns="http://www.w3.org/2000/svg" xmlns:xlink="http://www.w3.org/1999/xlink">
<g id="graph0" class="graph" transform="scale(1 1) rotate(0) translate(4 81)">
<title>main</title>
<polygon fill="white" stroke="transparent" points="-4,4 -4,-81 316,-81 316,4 -4,4"/>
<!-- Node1 -->
<g id="node1" class="node">
<title>Node1</title>
<g id="a_node1"><a xlink:title=" ">
<polygon fill="#bfbfbf" stroke="black" points="0,-19.5 0,-38.5 38,-38.5 38,-19.5 0,-19.5"/>
<text text-anchor="middle" x="19" y="-26.5" font-family="Helvetica,sans-Serif" font-size="10.00">main</text>
</a>
</g>
</g>
<!-- Node2 -->
<g id="node2" class="node">
<title>Node2</title>
<g id="a_node2"><a xlink:href="../../d5/d4c/group__sorting.html#gabc4f57d3d4cc808745ccb8e95bd40251" target="_top" xlink:title=" ">
<polygon fill="white" stroke="black" points="75.5,-38.5 75.5,-57.5 131.5,-57.5 131.5,-38.5 75.5,-38.5"/>
<text text-anchor="middle" x="103.5" y="-45.5" font-family="Helvetica,sans-Serif" font-size="10.00">heapSort</text>
</a>
</g>
</g>
<!-- Node1&#45;&gt;Node2 -->
<g id="edge1" class="edge">
<title>Node1&#45;&gt;Node2</title>
<path fill="none" stroke="midnightblue" d="M38.31,-33.22C46.33,-35.06 56.04,-37.3 65.46,-39.47"/>
<polygon fill="midnightblue" stroke="midnightblue" points="64.94,-42.94 75.47,-41.77 66.51,-36.12 64.94,-42.94"/>
</g>
<!-- Node5 -->
<g id="node5" class="node">
<title>Node5</title>
<g id="a_node5"><a xlink:href="../../d5/d4c/group__sorting.html#gacb94afd03a985c72f5b8530bc3e7b7ae" target="_top" xlink:title=" ">
<polygon fill="white" stroke="black" points="74,-0.5 74,-19.5 133,-19.5 133,-0.5 74,-0.5"/>
<text text-anchor="middle" x="103.5" y="-7.5" font-family="Helvetica,sans-Serif" font-size="10.00">printArray</text>
</a>
</g>
</g>
<!-- Node1&#45;&gt;Node5 -->
<g id="edge5" class="edge">
<title>Node1&#45;&gt;Node5</title>
<path fill="none" stroke="midnightblue" d="M38.31,-24.78C45.9,-23.04 55,-20.94 63.94,-18.88"/>
<polygon fill="midnightblue" stroke="midnightblue" points="64.91,-22.25 73.87,-16.59 63.34,-15.43 64.91,-22.25"/>
</g>
<!-- Node3 -->
<g id="node3" class="node">
<title>Node3</title>
<g id="a_node3"><a xlink:href="../../d5/d4c/group__sorting.html#gada988a2b069a5b5c4038831be4178db3" target="_top" xlink:title=" ">
<polygon fill="white" stroke="black" points="169,-57.5 169,-76.5 217,-76.5 217,-57.5 169,-57.5"/>
<text text-anchor="middle" x="193" y="-64.5" font-family="Helvetica,sans-Serif" font-size="10.00">heapify</text>
</a>
</g>
</g>
<!-- Node2&#45;&gt;Node3 -->
<g id="edge2" class="edge">
<title>Node2&#45;&gt;Node3</title>
<path fill="none" stroke="midnightblue" d="M131.71,-53.91C140.38,-55.79 150.07,-57.9 159.11,-59.86"/>
<polygon fill="midnightblue" stroke="midnightblue" points="158.42,-63.29 168.94,-61.99 159.91,-56.45 158.42,-63.29"/>
</g>
<!-- Node4 -->
<g id="node4" class="node">
<title>Node4</title>
<g id="a_node4"><a target="_blank" xlink:href="http://en.cppreference.com/w/cpp/algorithm/swap.html#" xlink:title=" ">
<polygon fill="white" stroke="black" points="253,-38.5 253,-57.5 312,-57.5 312,-38.5 253,-38.5"/>
<text text-anchor="middle" x="282.5" y="-45.5" font-family="Helvetica,sans-Serif" font-size="10.00">std::swap</text>
</a>
</g>
</g>
<!-- Node2&#45;&gt;Node4 -->
<g id="edge4" class="edge">
<title>Node2&#45;&gt;Node4</title>
<path fill="none" stroke="midnightblue" d="M131.77,-48C161.34,-48 208.82,-48 242.37,-48"/>
<polygon fill="midnightblue" stroke="midnightblue" points="242.73,-51.5 252.73,-48 242.73,-44.5 242.73,-51.5"/>
</g>
<!-- Node3&#45;&gt;Node4 -->
<g id="edge3" class="edge">
<title>Node3&#45;&gt;Node4</title>
<path fill="none" stroke="midnightblue" d="M217.45,-61.91C225.31,-60.2 234.29,-58.25 242.99,-56.36"/>
<polygon fill="midnightblue" stroke="midnightblue" points="243.96,-59.73 252.99,-54.19 242.48,-52.89 243.96,-59.73"/>
</g>
</g>
</svg>
