<?xml version="1.0" encoding="UTF-8" standalone="no"?>
<!DOCTYPE svg PUBLIC "-//W3C//DTD SVG 1.1//EN"
 "http://www.w3.org/Graphics/SVG/1.1/DTD/svg11.dtd">
<!-- Generated by graphviz version 2.44.0 (20200408.0750)
 -->
<!-- Title: test Pages: 1 -->
<svg width="332pt" height="123pt"
 viewBox="0.00 0.00 332.00 123.00" xmlns="http://www.w3.org/2000/svg" xmlns:xlink="http://www.w3.org/1999/xlink">
<g id="graph0" class="graph" transform="scale(1 1) rotate(0) translate(4 119)">
<title>test</title>
<polygon fill="white" stroke="transparent" points="-4,4 -4,-119 328,-119 328,4 -4,4"/>
<!-- Node1 -->
<g id="node1" class="node">
<title>Node1</title>
<g id="a_node1"><a xlink:title=" ">
<polygon fill="#bfbfbf" stroke="black" points="0,-38.5 0,-57.5 33,-57.5 33,-38.5 0,-38.5"/>
<text text-anchor="middle" x="16.5" y="-45.5" font-family="Helvetica,sans-Serif" font-size="10.00">test</text>
</a>
</g>
</g>
<!-- Node2 -->
<g id="node2" class="node">
<title>Node2</title>
<g id="a_node2"><a xlink:href="../../d5/d4c/group__sorting.html#ga29d28b140174dbdde7c9f5157758435f" target="_top" xlink:title=" ">
<polygon fill="white" stroke="black" points="79,-76.5 79,-95.5 135,-95.5 135,-76.5 79,-76.5"/>
<text text-anchor="middle" x="107" y="-83.5" font-family="Helvetica,sans-Serif" font-size="10.00">heapSort</text>
</a>
</g>
</g>
<!-- Node1&#45;&gt;Node2 -->
<g id="edge1" class="edge">
<title>Node1&#45;&gt;Node2</title>
<path fill="none" stroke="midnightblue" d="M33.32,-54.79C44.71,-59.68 60.46,-66.45 74.39,-72.43"/>
<polygon fill="midnightblue" stroke="midnightblue" points="73.1,-75.68 83.67,-76.41 75.86,-69.25 73.1,-75.68"/>
</g>
<!-- Node5 -->
<g id="node5" class="node">
<title>Node5</title>
<g id="a_node5"><a target="_blank" xlink:href="http://en.cppreference.com/w/cpp/algorithm/is_sorted.html#" xlink:title=" ">
<polygon fill="white" stroke="black" points="69,-38.5 69,-57.5 145,-57.5 145,-38.5 69,-38.5"/>
<text text-anchor="middle" x="107" y="-45.5" font-family="Helvetica,sans-Serif" font-size="10.00">std::is_sorted</text>
</a>
</g>
</g>
<!-- Node1&#45;&gt;Node5 -->
<g id="edge5" class="edge">
<title>Node1&#45;&gt;Node5</title>
<path fill="none" stroke="midnightblue" d="M33.32,-48C40.47,-48 49.35,-48 58.4,-48"/>
<polygon fill="midnightblue" stroke="midnightblue" points="58.63,-51.5 68.63,-48 58.63,-44.5 58.63,-51.5"/>
</g>
<!-- Node6 -->
<g id="node6" class="node">
<title>Node6</title>
<g id="a_node6"><a xlink:href="../../d5/d4c/group__sorting.html#ga9ed3e1510afdf3edd06cf2b68769a767" target="_top" xlink:title=" ">
<polygon fill="white" stroke="black" points="77.5,-0.5 77.5,-19.5 136.5,-19.5 136.5,-0.5 77.5,-0.5"/>
<text text-anchor="middle" x="107" y="-7.5" font-family="Helvetica,sans-Serif" font-size="10.00">printArray</text>
</a>
</g>
</g>
<!-- Node1&#45;&gt;Node6 -->
<g id="edge6" class="edge">
<title>Node1&#45;&gt;Node6</title>
<path fill="none" stroke="midnightblue" d="M33.32,-41.21C44.71,-36.32 60.46,-29.55 74.39,-23.57"/>
<polygon fill="midnightblue" stroke="midnightblue" points="75.86,-26.75 83.67,-19.59 73.1,-20.32 75.86,-26.75"/>
</g>
<!-- Node3 -->
<g id="node3" class="node">
<title>Node3</title>
<g id="a_node3"><a xlink:href="../../d5/d4c/group__sorting.html#gabd9a93f241c5c86f2ec0abf8b66b4145" target="_top" xlink:title=" ">
<polygon fill="white" stroke="black" points="181,-95.5 181,-114.5 229,-114.5 229,-95.5 181,-95.5"/>
<text text-anchor="middle" x="205" y="-102.5" font-family="Helvetica,sans-Serif" font-size="10.00">heapify</text>
</a>
</g>
</g>
<!-- Node2&#45;&gt;Node3 -->
<g id="edge2" class="edge">
<title>Node2&#45;&gt;Node3</title>
<path fill="none" stroke="midnightblue" d="M135.25,-91.39C146.4,-93.6 159.4,-96.17 171.07,-98.48"/>
<polygon fill="midnightblue" stroke="midnightblue" points="170.42,-101.92 180.91,-100.43 171.78,-95.05 170.42,-101.92"/>
</g>
<!-- Node4 -->
<g id="node4" class="node">
<title>Node4</title>
<g id="a_node4"><a target="_blank" xlink:href="http://en.cppreference.com/w/cpp/algorithm/swap.html#" xlink:title=" ">
<polygon fill="white" stroke="black" points="265,-76.5 265,-95.5 324,-95.5 324,-76.5 265,-76.5"/>
<text text-anchor="middle" x="294.5" y="-83.5" font-family="Helvetica,sans-Serif" font-size="10.00">std::swap</text>
</a>
</g>
</g>
<!-- Node2&#45;&gt;Node4 -->
<g id="edge4" class="edge">
<title>Node2&#45;&gt;Node4</title>
<path fill="none" stroke="midnightblue" d="M135.37,-86C166.93,-86 219.02,-86 254.73,-86"/>
<polygon fill="midnightblue" stroke="midnightblue" points="254.8,-89.5 264.8,-86 254.8,-82.5 254.8,-89.5"/>
</g>
<!-- Node3&#45;&gt;Node4 -->
<g id="edge3" class="edge">
<title>Node3&#45;&gt;Node4</title>
<path fill="none" stroke="midnightblue" d="M229.45,-99.91C237.31,-98.2 246.29,-96.25 254.99,-94.36"/>
<polygon fill="midnightblue" stroke="midnightblue" points="255.96,-97.73 264.99,-92.19 254.48,-90.89 255.96,-97.73"/>
</g>
</g>
</svg>
