<?xml version="1.0" encoding="UTF-8" standalone="no"?>
<!DOCTYPE svg PUBLIC "-//W3C//DTD SVG 1.1//EN"
 "http://www.w3.org/Graphics/SVG/1.1/DTD/svg11.dtd">
<!-- Generated by graphviz version 2.44.0 (20200408.0750)
 -->
<!-- Title: main Pages: 1 -->
<svg width="588pt" height="166pt"
 viewBox="0.00 0.00 588.00 165.62" xmlns="http://www.w3.org/2000/svg" xmlns:xlink="http://www.w3.org/1999/xlink">
<g id="graph0" class="graph" transform="scale(1 1) rotate(0) translate(4 161.62)">
<title>main</title>
<polygon fill="white" stroke="transparent" points="-4,4 -4,-161.62 584,-161.62 584,4 -4,4"/>
<!-- Node1 -->
<g id="node1" class="node">
<title>Node1</title>
<g id="a_node1"><a xlink:title=" ">
<polygon fill="#bfbfbf" stroke="black" points="0,-81.12 0,-100.12 38,-100.12 38,-81.12 0,-81.12"/>
<text text-anchor="middle" x="19" y="-88.12" font-family="Helvetica,sans-Serif" font-size="10.00">main</text>
</a>
</g>
</g>
<!-- Node2 -->
<g id="node2" class="node">
<title>Node2</title>
<g id="a_node2"><a xlink:href="../../d0/d01/smallest__circle_8cpp.html#ae1a3968e7947464bee7714f6d43b7002" target="_top" xlink:title=" ">
<polygon fill="white" stroke="black" points="74,-81.12 74,-100.12 107,-100.12 107,-81.12 74,-81.12"/>
<text text-anchor="middle" x="90.5" y="-88.12" font-family="Helvetica,sans-Serif" font-size="10.00">test</text>
</a>
</g>
</g>
<!-- Node1&#45;&gt;Node2 -->
<g id="edge1" class="edge">
<title>Node1&#45;&gt;Node2</title>
<path fill="none" stroke="midnightblue" d="M38.26,-90.62C46.07,-90.62 55.31,-90.62 63.79,-90.62"/>
<polygon fill="midnightblue" stroke="midnightblue" points="63.95,-94.12 73.95,-90.62 63.95,-87.12 63.95,-94.12"/>
</g>
<!-- Node3 -->
<g id="node3" class="node">
<title>Node3</title>
<g id="a_node3"><a xlink:href="../../d0/d01/smallest__circle_8cpp.html#a0b0676df8e4da7a08c7ccaecea344903" target="_top" xlink:title=" ">
<polygon fill="white" stroke="black" points="181,-81.12 181,-100.12 221,-100.12 221,-81.12 181,-81.12"/>
<text text-anchor="middle" x="201" y="-88.12" font-family="Helvetica,sans-Serif" font-size="10.00">circle</text>
</a>
</g>
</g>
<!-- Node2&#45;&gt;Node3 -->
<g id="edge2" class="edge">
<title>Node2&#45;&gt;Node3</title>
<path fill="none" stroke="midnightblue" d="M107.05,-90.62C123.61,-90.62 150.23,-90.62 170.74,-90.62"/>
<polygon fill="midnightblue" stroke="midnightblue" points="170.82,-94.12 180.82,-90.62 170.82,-87.12 170.82,-94.12"/>
</g>
<!-- Node4 -->
<g id="node4" class="node">
<title>Node4</title>
<g id="a_node4"><a target="_blank" xlink:href="http://en.cppreference.com/w/cpp/io/manip/endl.html#" xlink:title=" ">
<polygon fill="white" stroke="black" points="304.5,-138.12 304.5,-157.12 358.5,-157.12 358.5,-138.12 304.5,-138.12"/>
<text text-anchor="middle" x="331.5" y="-145.12" font-family="Helvetica,sans-Serif" font-size="10.00">std::endl</text>
</a>
</g>
</g>
<!-- Node2&#45;&gt;Node4 -->
<g id="edge12" class="edge">
<title>Node2&#45;&gt;Node4</title>
<path fill="none" stroke="midnightblue" d="M107.07,-97.07C117.18,-101.09 130.72,-106.13 143,-109.62 194.84,-124.34 256.28,-135.67 294.33,-141.99"/>
<polygon fill="midnightblue" stroke="midnightblue" points="293.99,-145.47 304.42,-143.63 295.11,-138.57 293.99,-145.47"/>
</g>
<!-- Node10 -->
<g id="node10" class="node">
<title>Node10</title>
<g id="a_node10"><a target="_blank" xlink:href="http://en.cppreference.com/w/cpp/container/vector/push_back.html#" xlink:title=" ">
<polygon fill="white" stroke="black" points="143,-43.12 143,-62.12 259,-62.12 259,-43.12 143,-43.12"/>
<text text-anchor="middle" x="201" y="-50.12" font-family="Helvetica,sans-Serif" font-size="10.00">std::vector::push_back</text>
</a>
</g>
</g>
<!-- Node2&#45;&gt;Node10 -->
<g id="edge13" class="edge">
<title>Node2&#45;&gt;Node10</title>
<path fill="none" stroke="midnightblue" d="M107.23,-84.67C117.41,-80.86 130.95,-75.85 143,-71.62 148.74,-69.6 154.82,-67.52 160.79,-65.51"/>
<polygon fill="midnightblue" stroke="midnightblue" points="162.28,-68.7 170.65,-62.21 160.06,-62.06 162.28,-68.7"/>
</g>
<!-- Node3&#45;&gt;Node4 -->
<g id="edge3" class="edge">
<title>Node3&#45;&gt;Node4</title>
<path fill="none" stroke="midnightblue" d="M221.24,-99.15C242.01,-108.36 275.38,-123.17 299.79,-134"/>
<polygon fill="midnightblue" stroke="midnightblue" points="298.42,-137.22 308.98,-138.07 301.26,-130.82 298.42,-137.22"/>
</g>
<!-- Node5 -->
<g id="node5" class="node">
<title>Node5</title>
<g id="a_node5"><a xlink:href="../../d0/d01/smallest__circle_8cpp.html#a3cbebd6f4d2cdf227663c67fe41ba12a" target="_top" xlink:title=" ">
<polygon fill="white" stroke="black" points="415.5,-62.12 415.5,-81.12 479.5,-81.12 479.5,-62.12 415.5,-62.12"/>
<text text-anchor="middle" x="447.5" y="-69.12" font-family="Helvetica,sans-Serif" font-size="10.00">LenghtLine</text>
</a>
</g>
</g>
<!-- Node3&#45;&gt;Node5 -->
<g id="edge4" class="edge">
<title>Node3&#45;&gt;Node5</title>
<path fill="none" stroke="midnightblue" d="M221.01,-92.08C251.94,-94.12 315.06,-96.93 368,-90.62 380.4,-89.14 393.67,-86.39 405.71,-83.43"/>
<polygon fill="midnightblue" stroke="midnightblue" points="406.67,-86.8 415.49,-80.92 404.93,-80.02 406.67,-86.8"/>
</g>
<!-- Node7 -->
<g id="node7" class="node">
<title>Node7</title>
<g id="a_node7"><a xlink:href="../../d0/d01/smallest__circle_8cpp.html#aee6d48762c1dfb9f14627927f0c16fad" target="_top" xlink:title=" ">
<polygon fill="white" stroke="black" points="295,-24.12 295,-43.12 368,-43.12 368,-24.12 295,-24.12"/>
<text text-anchor="middle" x="331.5" y="-31.12" font-family="Helvetica,sans-Serif" font-size="10.00">PointInCircle</text>
</a>
</g>
</g>
<!-- Node3&#45;&gt;Node7 -->
<g id="edge6" class="edge">
<title>Node3&#45;&gt;Node7</title>
<path fill="none" stroke="midnightblue" d="M221.04,-85.15C232.26,-81.71 246.63,-76.92 259,-71.62 260.19,-71.11 283.78,-58.55 303.55,-48.01"/>
<polygon fill="midnightblue" stroke="midnightblue" points="305.37,-51 312.54,-43.21 302.07,-44.83 305.37,-51"/>
</g>
<!-- Node8 -->
<g id="node8" class="node">
<title>Node8</title>
<g id="a_node8"><a target="_blank" xlink:href="http://en.cppreference.com/w/cpp/container/vector/size.html#" xlink:title=" ">
<polygon fill="white" stroke="black" points="404,-5.12 404,-24.12 491,-24.12 491,-5.12 404,-5.12"/>
<text text-anchor="middle" x="447.5" y="-12.12" font-family="Helvetica,sans-Serif" font-size="10.00">std::vector::size</text>
</a>
</g>
</g>
<!-- Node3&#45;&gt;Node8 -->
<g id="edge9" class="edge">
<title>Node3&#45;&gt;Node8</title>
<path fill="none" stroke="midnightblue" d="M221,-87.66C232.9,-85.04 248,-80.24 259,-71.62 282.59,-53.14 268.76,-29.08 295,-14.62 326.46,2.72 367.46,1.56 398.88,-3.3"/>
<polygon fill="midnightblue" stroke="midnightblue" points="398.69,-6.82 409.14,-5.06 399.88,0.08 398.69,-6.82"/>
</g>
<!-- Node9 -->
<g id="node9" class="node">
<title>Node9</title>
<g id="a_node9"><a xlink:href="../../d0/d01/smallest__circle_8cpp.html#a94682a4a70d5906857ca09de5b9fb2cc" target="_top" xlink:title=" ">
<polygon fill="white" stroke="black" points="296,-62.12 296,-81.12 367,-81.12 367,-62.12 296,-62.12"/>
<text text-anchor="middle" x="331.5" y="-69.12" font-family="Helvetica,sans-Serif" font-size="10.00">TriangleArea</text>
</a>
</g>
</g>
<!-- Node3&#45;&gt;Node9 -->
<g id="edge10" class="edge">
<title>Node3&#45;&gt;Node9</title>
<path fill="none" stroke="midnightblue" d="M221.24,-87.77C238.22,-85.26 263.64,-81.51 285.69,-78.25"/>
<polygon fill="midnightblue" stroke="midnightblue" points="286.48,-81.67 295.86,-76.74 285.46,-74.74 286.48,-81.67"/>
</g>
<!-- Node6 -->
<g id="node6" class="node">
<title>Node6</title>
<g id="a_node6"><a target="_blank" xlink:href="http://en.cppreference.com/w/cpp/numeric/math/sqrt.html#" xlink:title=" ">
<polygon fill="white" stroke="black" points="527,-62.12 527,-81.12 580,-81.12 580,-62.12 527,-62.12"/>
<text text-anchor="middle" x="553.5" y="-69.12" font-family="Helvetica,sans-Serif" font-size="10.00">std::sqrt</text>
</a>
</g>
</g>
<!-- Node5&#45;&gt;Node6 -->
<g id="edge5" class="edge">
<title>Node5&#45;&gt;Node6</title>
<path fill="none" stroke="midnightblue" d="M479.7,-71.62C491.37,-71.62 504.7,-71.62 516.74,-71.62"/>
<polygon fill="midnightblue" stroke="midnightblue" points="516.91,-75.12 526.91,-71.62 516.91,-68.12 516.91,-75.12"/>
</g>
<!-- Node7&#45;&gt;Node5 -->
<g id="edge7" class="edge">
<title>Node7&#45;&gt;Node5</title>
<path fill="none" stroke="midnightblue" d="M361.27,-43.21C375.44,-47.93 392.74,-53.7 408.03,-58.8"/>
<polygon fill="midnightblue" stroke="midnightblue" points="407.15,-62.19 417.74,-62.03 409.36,-55.55 407.15,-62.19"/>
</g>
<!-- Node7&#45;&gt;Node8 -->
<g id="edge8" class="edge">
<title>Node7&#45;&gt;Node8</title>
<path fill="none" stroke="midnightblue" d="M368.26,-27.66C376.33,-26.31 385.07,-24.86 393.67,-23.42"/>
<polygon fill="midnightblue" stroke="midnightblue" points="394.38,-26.85 403.67,-21.76 393.23,-19.95 394.38,-26.85"/>
</g>
<!-- Node9&#45;&gt;Node5 -->
<g id="edge11" class="edge">
<title>Node9&#45;&gt;Node5</title>
<path fill="none" stroke="midnightblue" d="M367.01,-71.62C378.99,-71.62 392.55,-71.62 405.03,-71.62"/>
<polygon fill="midnightblue" stroke="midnightblue" points="405.21,-75.12 415.21,-71.62 405.21,-68.12 405.21,-75.12"/>
</g>
</g>
</svg>
