<?xml version="1.0" encoding="UTF-8" standalone="no"?>
<!DOCTYPE svg PUBLIC "-//W3C//DTD SVG 1.1//EN"
 "http://www.w3.org/Graphics/SVG/1.1/DTD/svg11.dtd">
<!-- Generated by graphviz version 2.44.0 (20200408.0750)
 -->
<!-- Title: heapSort Pages: 1 -->
<svg width="243pt" height="47pt"
 viewBox="0.00 0.00 243.00 47.00" xmlns="http://www.w3.org/2000/svg" xmlns:xlink="http://www.w3.org/1999/xlink">
<g id="graph0" class="graph" transform="scale(1 1) rotate(0) translate(4 43)">
<title>heapSort</title>
<polygon fill="white" stroke="transparent" points="-4,4 -4,-43 239,-43 239,4 -4,4"/>
<!-- Node1 -->
<g id="node1" class="node">
<title>Node1</title>
<g id="a_node1"><a xlink:title=" ">
<polygon fill="#bfbfbf" stroke="black" points="0,-0.5 0,-19.5 56,-19.5 56,-0.5 0,-0.5"/>
<text text-anchor="middle" x="28" y="-7.5" font-family="Helvetica,sans-Serif" font-size="10.00">heapSort</text>
</a>
</g>
</g>
<!-- Node2 -->
<g id="node2" class="node">
<title>Node2</title>
<g id="a_node2"><a xlink:href="../../d5/d4c/group__sorting.html#gada988a2b069a5b5c4038831be4178db3" target="_top" xlink:title=" ">
<polygon fill="white" stroke="black" points="92,-19.5 92,-38.5 140,-38.5 140,-19.5 92,-19.5"/>
<text text-anchor="middle" x="116" y="-26.5" font-family="Helvetica,sans-Serif" font-size="10.00">heapify</text>
</a>
</g>
</g>
<!-- Node1&#45;&gt;Node2 -->
<g id="edge1" class="edge">
<title>Node1&#45;&gt;Node2</title>
<path fill="none" stroke="midnightblue" d="M56.21,-16.01C64.33,-17.8 73.32,-19.79 81.77,-21.66"/>
<polygon fill="midnightblue" stroke="midnightblue" points="81.21,-25.12 91.73,-23.86 82.72,-18.28 81.21,-25.12"/>
</g>
<!-- Node3 -->
<g id="node3" class="node">
<title>Node3</title>
<g id="a_node3"><a target="_blank" xlink:href="http://en.cppreference.com/w/cpp/algorithm/swap.html#" xlink:title=" ">
<polygon fill="white" stroke="black" points="176,-0.5 176,-19.5 235,-19.5 235,-0.5 176,-0.5"/>
<text text-anchor="middle" x="205.5" y="-7.5" font-family="Helvetica,sans-Serif" font-size="10.00">std::swap</text>
</a>
</g>
</g>
<!-- Node1&#45;&gt;Node3 -->
<g id="edge3" class="edge">
<title>Node1&#45;&gt;Node3</title>
<path fill="none" stroke="midnightblue" d="M56.04,-10C85.36,-10 132.43,-10 165.7,-10"/>
<polygon fill="midnightblue" stroke="midnightblue" points="165.98,-13.5 175.97,-10 165.97,-6.5 165.98,-13.5"/>
</g>
<!-- Node2&#45;&gt;Node3 -->
<g id="edge2" class="edge">
<title>Node2&#45;&gt;Node3</title>
<path fill="none" stroke="midnightblue" d="M140.45,-23.91C148.31,-22.2 157.29,-20.25 165.99,-18.36"/>
<polygon fill="midnightblue" stroke="midnightblue" points="166.96,-21.73 175.99,-16.19 165.48,-14.89 166.96,-21.73"/>
</g>
</g>
</svg>
