<?xml version="1.0" encoding="UTF-8" standalone="no"?>
<!DOCTYPE svg PUBLIC "-//W3C//DTD SVG 1.1//EN"
 "http://www.w3.org/Graphics/SVG/1.1/DTD/svg11.dtd">
<!-- Generated by graphviz version 2.44.0 (20200408.0750)
 -->
<!-- Title: graph/breadth_first_search.cpp Pages: 1 -->
<svg width="328pt" height="95pt"
 viewBox="0.00 0.00 327.50 95.00" xmlns="http://www.w3.org/2000/svg" xmlns:xlink="http://www.w3.org/1999/xlink">
<g id="graph0" class="graph" transform="scale(1 1) rotate(0) translate(4 91)">
<title>graph/breadth_first_search.cpp</title>
<polygon fill="white" stroke="transparent" points="-4,4 -4,-91 323.5,-91 323.5,4 -4,4"/>
<!-- Node1 -->
<g id="node1" class="node">
<title>Node1</title>
<g id="a_node1"><a xlink:title="Breadth First Search Algorithm (Breadth First Search)">
<polygon fill="#bfbfbf" stroke="black" points="119,-56.5 119,-86.5 217,-86.5 217,-56.5 119,-56.5"/>
<text text-anchor="start" x="127" y="-74.5" font-family="Helvetica,sans-Serif" font-size="10.00">graph/breadth_first</text>
<text text-anchor="middle" x="168" y="-63.5" font-family="Helvetica,sans-Serif" font-size="10.00">_search.cpp</text>
</a>
</g>
</g>
<!-- Node2 -->
<g id="node2" class="node">
<title>Node2</title>
<g id="a_node2"><a xlink:title=" ">
<polygon fill="white" stroke="#bfbfbf" points="0,-0.5 0,-19.5 56,-19.5 56,-0.5 0,-0.5"/>
<text text-anchor="middle" x="28" y="-7.5" font-family="Helvetica,sans-Serif" font-size="10.00">algorithm</text>
</a>
</g>
</g>
<!-- Node1&#45;&gt;Node2 -->
<g id="edge1" class="edge">
<title>Node1&#45;&gt;Node2</title>
<path fill="none" stroke="midnightblue" d="M134.82,-56.4C111.44,-46.46 80.39,-33.26 57.79,-23.66"/>
<polygon fill="midnightblue" stroke="midnightblue" points="58.94,-20.35 48.37,-19.66 56.21,-26.79 58.94,-20.35"/>
</g>
<!-- Node3 -->
<g id="node3" class="node">
<title>Node3</title>
<g id="a_node3"><a xlink:title=" ">
<polygon fill="white" stroke="#bfbfbf" points="74,-0.5 74,-19.5 128,-19.5 128,-0.5 74,-0.5"/>
<text text-anchor="middle" x="101" y="-7.5" font-family="Helvetica,sans-Serif" font-size="10.00">iostream</text>
</a>
</g>
</g>
<!-- Node1&#45;&gt;Node3 -->
<g id="edge2" class="edge">
<title>Node1&#45;&gt;Node3</title>
<path fill="none" stroke="midnightblue" d="M152.12,-56.4C141.98,-47.4 128.84,-35.72 118.41,-26.47"/>
<polygon fill="midnightblue" stroke="midnightblue" points="120.55,-23.68 110.75,-19.66 115.9,-28.92 120.55,-23.68"/>
</g>
<!-- Node4 -->
<g id="node4" class="node">
<title>Node4</title>
<g id="a_node4"><a xlink:title=" ">
<polygon fill="white" stroke="#bfbfbf" points="146.5,-0.5 146.5,-19.5 189.5,-19.5 189.5,-0.5 146.5,-0.5"/>
<text text-anchor="middle" x="168" y="-7.5" font-family="Helvetica,sans-Serif" font-size="10.00">queue</text>
</a>
</g>
</g>
<!-- Node1&#45;&gt;Node4 -->
<g id="edge3" class="edge">
<title>Node1&#45;&gt;Node4</title>
<path fill="none" stroke="midnightblue" d="M168,-56.4C168,-48.47 168,-38.46 168,-29.86"/>
<polygon fill="midnightblue" stroke="midnightblue" points="171.5,-29.66 168,-19.66 164.5,-29.66 171.5,-29.66"/>
</g>
<!-- Node5 -->
<g id="node5" class="node">
<title>Node5</title>
<g id="a_node5"><a xlink:title=" ">
<polygon fill="white" stroke="#bfbfbf" points="208,-0.5 208,-19.5 252,-19.5 252,-0.5 208,-0.5"/>
<text text-anchor="middle" x="230" y="-7.5" font-family="Helvetica,sans-Serif" font-size="10.00">vector</text>
</a>
</g>
</g>
<!-- Node1&#45;&gt;Node5 -->
<g id="edge4" class="edge">
<title>Node1&#45;&gt;Node5</title>
<path fill="none" stroke="midnightblue" d="M182.69,-56.4C191.98,-47.49 204,-35.95 213.6,-26.74"/>
<polygon fill="midnightblue" stroke="midnightblue" points="216.19,-29.11 220.98,-19.66 211.34,-24.06 216.19,-29.11"/>
</g>
<!-- Node6 -->
<g id="node6" class="node">
<title>Node6</title>
<g id="a_node6"><a xlink:title=" ">
<polygon fill="white" stroke="#bfbfbf" points="270.5,-0.5 270.5,-19.5 319.5,-19.5 319.5,-0.5 270.5,-0.5"/>
<text text-anchor="middle" x="295" y="-7.5" font-family="Helvetica,sans-Serif" font-size="10.00">cassert</text>
</a>
</g>
</g>
<!-- Node1&#45;&gt;Node6 -->
<g id="edge5" class="edge">
<title>Node1&#45;&gt;Node6</title>
<path fill="none" stroke="midnightblue" d="M198.1,-56.4C219.12,-46.55 246.97,-33.5 267.42,-23.92"/>
<polygon fill="midnightblue" stroke="midnightblue" points="268.95,-27.07 276.52,-19.66 265.98,-20.73 268.95,-27.07"/>
</g>
</g>
</svg>
