<?xml version="1.0" encoding="UTF-8" standalone="no"?>
<!DOCTYPE svg PUBLIC "-//W3C//DTD SVG 1.1//EN"
 "http://www.w3.org/Graphics/SVG/1.1/DTD/svg11.dtd">
<!-- Generated by graphviz version 2.44.0 (20200408.0750)
 -->
<!-- Title: graph/breadth_first_search.cpp Pages: 1 -->
<svg width="186pt" height="95pt"
 viewBox="0.00 0.00 185.50 95.00" xmlns="http://www.w3.org/2000/svg" xmlns:xlink="http://www.w3.org/1999/xlink">
<g id="graph0" class="graph" transform="scale(1 1) rotate(0) translate(4 91)">
<title>graph/breadth_first_search.cpp</title>
<polygon fill="white" stroke="transparent" points="-4,4 -4,-91 181.5,-91 181.5,4 -4,4"/>
<!-- Node1 -->
<g id="node1" class="node">
<title>Node1</title>
<g id="a_node1"><a xlink:title="Breadth First Search Algorithm (Breadth First Search)">
<polygon fill="#bfbfbf" stroke="black" points="45,-56.5 45,-86.5 143,-86.5 143,-56.5 45,-56.5"/>
<text text-anchor="start" x="53" y="-74.5" font-family="Helvetica,sans-Serif" font-size="10.00">graph/breadth_first</text>
<text text-anchor="middle" x="94" y="-63.5" font-family="Helvetica,sans-Serif" font-size="10.00">_search.cpp</text>
</a>
</g>
</g>
<!-- Node2 -->
<g id="node2" class="node">
<title>Node2</title>
<g id="a_node2"><a xlink:title=" ">
<polygon fill="white" stroke="#bfbfbf" points="0,-0.5 0,-19.5 54,-19.5 54,-0.5 0,-0.5"/>
<text text-anchor="middle" x="27" y="-7.5" font-family="Helvetica,sans-Serif" font-size="10.00">iostream</text>
</a>
</g>
</g>
<!-- Node1&#45;&gt;Node2 -->
<g id="edge1" class="edge">
<title>Node1&#45;&gt;Node2</title>
<path fill="none" stroke="midnightblue" d="M78.12,-56.4C67.98,-47.4 54.84,-35.72 44.41,-26.47"/>
<polygon fill="midnightblue" stroke="midnightblue" points="46.55,-23.68 36.75,-19.66 41.9,-28.92 46.55,-23.68"/>
</g>
<!-- Node3 -->
<g id="node3" class="node">
<title>Node3</title>
<g id="a_node3"><a xlink:title=" ">
<polygon fill="white" stroke="#bfbfbf" points="72,-0.5 72,-19.5 116,-19.5 116,-0.5 72,-0.5"/>
<text text-anchor="middle" x="94" y="-7.5" font-family="Helvetica,sans-Serif" font-size="10.00">vector</text>
</a>
</g>
</g>
<!-- Node1&#45;&gt;Node3 -->
<g id="edge2" class="edge">
<title>Node1&#45;&gt;Node3</title>
<path fill="none" stroke="midnightblue" d="M94,-56.4C94,-48.47 94,-38.46 94,-29.86"/>
<polygon fill="midnightblue" stroke="midnightblue" points="97.5,-29.66 94,-19.66 90.5,-29.66 97.5,-29.66"/>
</g>
<!-- Node4 -->
<g id="node4" class="node">
<title>Node4</title>
<g id="a_node4"><a xlink:title=" ">
<polygon fill="white" stroke="#bfbfbf" points="134.5,-0.5 134.5,-19.5 177.5,-19.5 177.5,-0.5 134.5,-0.5"/>
<text text-anchor="middle" x="156" y="-7.5" font-family="Helvetica,sans-Serif" font-size="10.00">queue</text>
</a>
</g>
</g>
<!-- Node1&#45;&gt;Node4 -->
<g id="edge3" class="edge">
<title>Node1&#45;&gt;Node4</title>
<path fill="none" stroke="midnightblue" d="M108.69,-56.4C117.98,-47.49 130,-35.95 139.6,-26.74"/>
<polygon fill="midnightblue" stroke="midnightblue" points="142.19,-29.11 146.98,-19.66 137.34,-24.06 142.19,-29.11"/>
</g>
</g>
</svg>
